<svg width="1920" height="1080" viewBox="0 0 1920 1080" fill="none" xmlns="http://www.w3.org/2000/svg">
<g clip-path="url(#clip0_1_2)">
<rect width="1920" height="1080" fill="#1C4F2A"/>
<path d="M240 379.369L805 0H1679L1452.5 216.5L1679 1086.49L1217.5 894.548L402.5 1092L240 379.369Z" fill="#E6E6E6"/>
<path d="M535.4 628.6C528.147 628.6 521.427 626.947 515.24 623.64C509.053 620.333 504.573 616.653 501.8 612.6L513 602.2C515.027 604.973 518.12 607.533 522.28 609.88C526.44 612.227 530.813 613.4 535.4 613.4C542.547 613.4 548.2 611.16 552.36 606.68C556.52 602.2 558.6 596.173 558.6 588.6V581.72H558.44C556.307 584.707 553 587.427 548.52 589.88C544.147 592.227 539.24 593.4 533.8 593.4C527.72 593.4 522.013 591.747 516.68 588.44C511.453 585.133 507.24 580.547 504.04 574.68C500.947 568.813 499.4 562.253 499.4 555C499.4 547.747 500.947 541.187 504.04 535.32C507.24 529.453 511.453 524.867 516.68 521.56C522.013 518.253 527.72 516.6 533.8 516.6C539.24 516.6 544.147 517.827 548.52 520.28C553 522.627 556.307 525.293 558.44 528.28H558.6V518.2H574.6V588.6C574.6 596.28 572.947 603.16 569.64 609.24C566.333 615.32 561.693 620.067 555.72 623.48C549.747 626.893 542.973 628.6 535.4 628.6ZM537 578.2C540.947 578.2 544.573 577.24 547.88 575.32C551.187 573.293 553.8 570.52 555.72 567C557.64 563.48 558.6 559.48 558.6 555C558.6 550.52 557.64 546.52 555.72 543C553.8 539.48 551.187 536.76 547.88 534.84C544.573 532.813 540.947 531.8 537 531.8C533.053 531.8 529.427 532.813 526.12 534.84C522.813 536.76 520.2 539.48 518.28 543C516.36 546.52 515.4 550.52 515.4 555C515.4 559.48 516.36 563.48 518.28 567C520.2 570.52 522.813 573.293 526.12 575.32C529.427 577.24 533.053 578.2 537 578.2ZM626.613 516.6C632.906 516.6 638.453 517.88 643.253 520.44C648.159 523 651.946 526.573 654.613 531.16C657.279 535.64 658.613 540.653 658.613 546.2V595H643.413V584.12H643.253C641.226 587.32 637.919 590.2 633.333 592.76C628.746 595.32 623.679 596.6 618.133 596.6C613.119 596.6 608.639 595.587 604.693 593.56C600.746 591.533 597.653 588.813 595.413 585.4C593.279 581.88 592.213 578.147 592.213 574.2C592.213 567.8 594.293 562.467 598.453 558.2C602.719 553.933 608.639 551.16 616.213 549.88L642.613 545.4V545.08C642.613 541.133 641.066 537.827 637.973 535.16C634.986 532.387 631.199 531 626.613 531C622.453 531 618.773 531.96 615.573 533.88C612.373 535.693 609.333 538.147 606.453 541.24L596.213 531.32C604.639 521.507 614.773 516.6 626.613 516.6ZM621.013 583C624.959 583 628.586 582.04 631.893 580.12C635.199 578.093 637.813 575.373 639.733 571.96C641.653 568.547 642.613 564.76 642.613 560.6V558.2L620.213 562.2C616.373 562.947 613.386 564.28 611.253 566.2C609.226 568.013 608.213 570.147 608.213 572.6C608.213 575.48 609.386 577.933 611.733 579.96C614.079 581.987 617.173 583 621.013 583ZM680.138 595V518.2H696.138V529.08H696.298C697.898 525.88 700.671 523 704.618 520.44C708.671 517.88 713.311 516.6 718.538 516.6C724.084 516.6 728.991 517.933 733.258 520.6C737.524 523.16 740.564 526.04 742.378 529.24H742.698C744.511 526.04 747.711 523.16 752.298 520.6C756.991 517.933 762.537 516.6 768.938 516.6C774.058 516.6 778.751 517.987 783.018 520.76C787.284 523.427 790.644 527.267 793.098 532.28C795.658 537.187 796.938 542.893 796.938 549.4V595H780.938V549.4C780.938 543.96 779.391 539.693 776.298 536.6C773.311 533.4 769.524 531.8 764.938 531.8C759.604 531.8 755.178 533.72 751.658 537.56C748.244 541.293 746.538 546.307 746.538 552.6V595H730.538V549.4C730.538 543.96 728.991 539.693 725.898 536.6C722.911 533.4 719.124 531.8 714.538 531.8C709.204 531.8 704.778 533.72 701.258 537.56C697.844 541.293 696.138 546.307 696.138 552.6V595H680.138ZM853.775 596.6C846.415 596.6 839.642 594.84 833.455 591.32C827.375 587.8 822.575 583 819.055 576.92C815.535 570.733 813.775 563.96 813.775 556.6C813.775 549.24 815.535 542.52 819.055 536.44C822.575 530.36 827.322 525.56 833.295 522.04C839.268 518.413 845.828 516.6 852.975 516.6C860.122 516.6 866.522 518.253 872.175 521.56C877.935 524.76 882.415 529.24 885.615 535C888.922 540.653 890.575 547.053 890.575 554.2C890.575 557.08 890.308 559.747 889.775 562.2H830.575C831.428 567.533 834.095 572.067 838.575 575.8C843.055 579.533 848.388 581.4 854.575 581.4C862.362 581.4 869.562 578.307 876.175 572.12L886.575 582.36C883.588 586.093 879.215 589.4 873.455 592.28C867.802 595.16 861.242 596.6 853.775 596.6ZM873.935 549.4C872.762 543.747 870.362 539.267 866.735 535.96C863.108 532.653 858.522 531 852.975 531C847.002 531 842.095 532.653 838.255 535.96C834.522 539.267 831.855 543.747 830.255 549.4H873.935ZM979.4 596.6C972.04 596.6 965.267 594.84 959.08 591.32C953 587.8 948.2 583 944.68 576.92C941.16 570.733 939.4 563.96 939.4 556.6C939.4 549.24 941.16 542.52 944.68 536.44C948.2 530.253 953 525.4 959.08 521.88C965.267 518.36 972.04 516.6 979.4 516.6C986.76 516.6 993.48 518.36 999.56 521.88C1005.75 525.4 1010.6 530.253 1014.12 536.44C1017.64 542.52 1019.4 549.24 1019.4 556.6C1019.4 563.96 1017.64 570.733 1014.12 576.92C1010.6 583 1005.75 587.8 999.56 591.32C993.48 594.84 986.76 596.6 979.4 596.6ZM979.4 581.4C983.88 581.4 987.933 580.333 991.56 578.2C995.293 576.067 998.173 573.133 1000.2 569.4C1002.33 565.56 1003.4 561.293 1003.4 556.6C1003.4 551.907 1002.33 547.693 1000.2 543.96C998.173 540.12 995.293 537.133 991.56 535C987.933 532.867 983.88 531.8 979.4 531.8C974.92 531.8 970.813 532.867 967.08 535C963.453 537.133 960.573 540.12 958.44 543.96C956.413 547.693 955.4 551.907 955.4 556.6C955.4 561.293 956.413 565.56 958.44 569.4C960.573 573.133 963.453 576.067 967.08 578.2C970.813 580.333 974.92 581.4 979.4 581.4ZM1075.41 595H1057.81L1027.41 518.2H1044.69L1066.77 576.28H1067.09L1089.17 518.2H1105.81L1075.41 595ZM1153.78 596.6C1146.42 596.6 1139.64 594.84 1133.46 591.32C1127.38 587.8 1122.58 583 1119.06 576.92C1115.54 570.733 1113.78 563.96 1113.78 556.6C1113.78 549.24 1115.54 542.52 1119.06 536.44C1122.58 530.36 1127.32 525.56 1133.3 522.04C1139.27 518.413 1145.83 516.6 1152.98 516.6C1160.12 516.6 1166.52 518.253 1172.18 521.56C1177.94 524.76 1182.42 529.24 1185.62 535C1188.92 540.653 1190.58 547.053 1190.58 554.2C1190.58 557.08 1190.31 559.747 1189.78 562.2H1130.58C1131.43 567.533 1134.1 572.067 1138.58 575.8C1143.06 579.533 1148.39 581.4 1154.58 581.4C1162.36 581.4 1169.56 578.307 1176.18 572.12L1186.58 582.36C1183.59 586.093 1179.22 589.4 1173.46 592.28C1167.8 595.16 1161.24 596.6 1153.78 596.6ZM1173.94 549.4C1172.76 543.747 1170.36 539.267 1166.74 535.96C1163.11 532.653 1158.52 531 1152.98 531C1147 531 1142.1 532.653 1138.26 535.96C1134.52 539.267 1131.86 543.747 1130.26 549.4H1173.94ZM1207.33 595V518.2H1223.33V528.28H1223.65C1225.67 525.293 1228.71 522.627 1232.77 520.28C1236.93 517.827 1241.51 516.6 1246.53 516.6H1250.53V533.4C1248.07 532.867 1245.94 532.6 1244.13 532.6C1240.39 532.6 1236.93 533.613 1233.73 535.64C1230.53 537.56 1227.97 540.333 1226.05 543.96C1224.23 547.48 1223.33 551.427 1223.33 555.8V595H1207.33ZM1306.73 539C1303.96 539 1301.5 537.987 1299.37 535.96C1297.34 533.827 1296.33 531.373 1296.33 528.6C1296.33 525.827 1297.34 523.427 1299.37 521.4C1301.5 519.267 1303.96 518.2 1306.73 518.2C1309.5 518.2 1311.9 519.267 1313.93 521.4C1316.06 523.427 1317.13 525.827 1317.13 528.6C1317.13 531.373 1316.06 533.827 1313.93 535.96C1311.9 537.987 1309.5 539 1306.73 539ZM1306.73 596.6C1303.96 596.6 1301.5 595.587 1299.37 593.56C1297.34 591.427 1296.33 588.973 1296.33 586.2C1296.33 583.427 1297.34 581.027 1299.37 579C1301.5 576.867 1303.96 575.8 1306.73 575.8C1309.5 575.8 1311.9 576.867 1313.93 579C1316.06 581.027 1317.13 583.427 1317.13 586.2C1317.13 588.973 1316.06 591.427 1313.93 593.56C1311.9 595.587 1309.5 596.6 1306.73 596.6ZM1365.01 631C1360.64 626.307 1356.32 620.067 1352.05 612.28C1347.78 604.6 1344.21 595.8 1341.33 585.88C1338.56 575.853 1337.17 565.56 1337.17 555C1337.17 544.44 1338.56 534.2 1341.33 524.28C1344.21 514.253 1347.78 505.4 1352.05 497.72C1356.32 489.933 1360.64 483.693 1365.01 479L1377.17 487C1373.44 491.373 1369.7 497.08 1365.97 504.12C1362.34 511.16 1359.3 519.107 1356.85 527.96C1354.4 536.813 1353.17 545.827 1353.17 555C1353.17 564.067 1354.4 573.027 1356.85 581.88C1359.3 590.733 1362.34 598.68 1365.97 605.72C1369.7 612.867 1373.44 618.627 1377.17 623L1365.01 631Z" fill="#FF6B00"/>
<path d="M799.16 666.24C798.264 666.24 797.456 666.048 796.736 665.664C796.032 665.28 795.528 664.848 795.224 664.368H795.2V666H792.8V649.2H795.2V656.112H795.224C795.528 655.632 796.032 655.2 796.736 654.816C797.456 654.432 798.264 654.24 799.16 654.24C800.12 654.24 801.008 654.504 801.824 655.032C802.656 655.544 803.32 656.256 803.816 657.168C804.312 658.08 804.56 659.104 804.56 660.24C804.56 661.376 804.312 662.4 803.816 663.312C803.32 664.224 802.656 664.944 801.824 665.472C801.008 665.984 800.12 666.24 799.16 666.24ZM798.68 663.96C799.32 663.96 799.904 663.8 800.432 663.48C800.96 663.16 801.376 662.72 801.68 662.16C802 661.584 802.16 660.944 802.16 660.24C802.16 659.536 802 658.904 801.68 658.344C801.376 657.768 800.96 657.32 800.432 657C799.904 656.68 799.32 656.52 798.68 656.52C798.04 656.52 797.456 656.68 796.928 657C796.4 657.32 795.976 657.768 795.656 658.344C795.352 658.904 795.2 659.536 795.2 660.24C795.2 660.944 795.352 661.584 795.656 662.16C795.976 662.72 796.4 663.16 796.928 663.48C797.456 663.8 798.04 663.96 798.68 663.96ZM811.651 666.24C810.771 666.24 809.987 666.04 809.299 665.64C808.611 665.224 808.067 664.64 807.667 663.888C807.283 663.12 807.091 662.224 807.091 661.2V654.48H809.491V661.2C809.491 662.032 809.731 662.704 810.211 663.216C810.707 663.712 811.347 663.96 812.131 663.96C813.043 663.96 813.787 663.664 814.363 663.072C814.955 662.464 815.251 661.68 815.251 660.72V654.48H817.651V666H815.251V664.368H815.227C814.923 664.848 814.443 665.28 813.787 665.664C813.147 666.048 812.435 666.24 811.651 666.24ZM825.696 666.12C824.544 666.12 823.656 665.792 823.032 665.136C822.408 664.48 822.096 663.528 822.096 662.28V656.76H819.936V654.48H821.256C821.624 654.48 821.896 654.376 822.072 654.168C822.248 653.96 822.336 653.624 822.336 653.16V650.64H824.496V654.48H827.256V656.76H824.496V662.04C824.496 662.632 824.64 663.08 824.928 663.384C825.216 663.688 825.632 663.84 826.176 663.84C826.624 663.84 827.064 663.72 827.496 663.48V665.76C827.304 665.856 827.04 665.936 826.704 666C826.384 666.08 826.048 666.12 825.696 666.12ZM837.716 666H835.316V654.48H837.716V666ZM836.516 652.32C836.148 652.32 835.812 652.184 835.508 651.912C835.22 651.624 835.076 651.28 835.076 650.88C835.076 650.48 835.22 650.144 835.508 649.872C835.812 649.584 836.148 649.44 836.516 649.44C836.884 649.44 837.212 649.584 837.5 649.872C837.804 650.144 837.956 650.48 837.956 650.88C837.956 651.28 837.804 651.624 837.5 651.912C837.212 652.184 836.884 652.32 836.516 652.32ZM845.876 666.12C844.724 666.12 843.836 665.792 843.212 665.136C842.588 664.48 842.276 663.528 842.276 662.28V656.76H840.116V654.48H841.436C841.804 654.48 842.076 654.376 842.252 654.168C842.428 653.96 842.516 653.624 842.516 653.16V650.64H844.676V654.48H847.436V656.76H844.676V662.04C844.676 662.632 844.82 663.08 845.108 663.384C845.396 663.688 845.812 663.84 846.356 663.84C846.804 663.84 847.244 663.72 847.676 663.48V665.76C847.484 665.856 847.22 665.936 846.884 666C846.564 666.08 846.228 666.12 845.876 666.12ZM853.673 649.92L850.673 654.72L849.113 653.88L851.513 648.72L853.673 649.92ZM859.564 666.24C858.572 666.24 857.668 666.024 856.852 665.592C856.036 665.144 855.42 664.64 855.004 664.08L856.564 662.52C856.9 662.92 857.34 663.28 857.884 663.6C858.428 663.92 858.996 664.08 859.588 664.08C860.228 664.08 860.724 663.944 861.076 663.672C861.428 663.4 861.604 663.064 861.604 662.664C861.604 662.312 861.42 662.04 861.052 661.848C860.7 661.64 860.14 661.424 859.372 661.2C858.572 660.96 857.908 660.72 857.38 660.48C856.868 660.24 856.42 659.888 856.036 659.424C855.668 658.96 855.484 658.352 855.484 657.6C855.484 656.992 855.652 656.432 855.988 655.92C856.324 655.408 856.812 655 857.452 654.696C858.092 654.392 858.836 654.24 859.684 654.24C860.596 654.24 861.404 654.4 862.108 654.72C862.828 655.04 863.38 655.4 863.764 655.8L862.204 657.36C861.932 657.104 861.572 656.88 861.124 656.688C860.676 656.496 860.196 656.4 859.684 656.4C859.124 656.4 858.684 656.52 858.364 656.76C858.044 657 857.884 657.28 857.884 657.6C857.884 657.952 858.052 658.224 858.388 658.416C858.74 658.592 859.308 658.8 860.092 659.04C860.908 659.28 861.572 659.52 862.084 659.76C862.612 660 863.06 660.352 863.428 660.816C863.812 661.28 864.004 661.888 864.004 662.64C864.004 663.28 863.82 663.88 863.452 664.44C863.1 664.984 862.588 665.424 861.916 665.76C861.244 666.08 860.46 666.24 859.564 666.24ZM877.46 666.24C876.356 666.24 875.34 665.976 874.412 665.448C873.5 664.92 872.78 664.2 872.252 663.288C871.724 662.36 871.46 661.344 871.46 660.24C871.46 659.136 871.724 658.128 872.252 657.216C872.78 656.288 873.5 655.56 874.412 655.032C875.34 654.504 876.356 654.24 877.46 654.24C878.564 654.24 879.572 654.504 880.484 655.032C881.412 655.56 882.14 656.288 882.668 657.216C883.196 658.128 883.46 659.136 883.46 660.24C883.46 661.344 883.196 662.36 882.668 663.288C882.14 664.2 881.412 664.92 880.484 665.448C879.572 665.976 878.564 666.24 877.46 666.24ZM877.46 663.96C878.132 663.96 878.74 663.8 879.284 663.48C879.844 663.16 880.276 662.72 880.58 662.16C880.9 661.584 881.06 660.944 881.06 660.24C881.06 659.536 880.9 658.904 880.58 658.344C880.276 657.768 879.844 657.32 879.284 657C878.74 656.68 878.132 656.52 877.46 656.52C876.788 656.52 876.172 656.68 875.612 657C875.068 657.32 874.636 657.768 874.316 658.344C874.012 658.904 873.86 659.536 873.86 660.24C873.86 660.944 874.012 661.584 874.316 662.16C874.636 662.72 875.068 663.16 875.612 663.48C876.172 663.8 876.788 663.96 877.46 663.96ZM888.622 666H886.222V649.2H888.622V659.76L893.542 654.48H896.542L892.102 659.16L896.902 666H894.142L890.542 660.84L888.622 662.88V666ZM903.034 654.24C903.978 654.24 904.81 654.432 905.53 654.816C906.266 655.2 906.834 655.736 907.234 656.424C907.634 657.096 907.834 657.848 907.834 658.68V666H905.554V664.368H905.53C905.226 664.848 904.73 665.28 904.042 665.664C903.354 666.048 902.594 666.24 901.762 666.24C901.01 666.24 900.338 666.088 899.746 665.784C899.154 665.48 898.69 665.072 898.354 664.56C898.034 664.032 897.874 663.472 897.874 662.88C897.874 661.92 898.186 661.12 898.81 660.48C899.45 659.84 900.338 659.424 901.474 659.232L905.434 658.56V658.512C905.434 657.92 905.202 657.424 904.738 657.024C904.29 656.608 903.722 656.4 903.034 656.4C902.41 656.4 901.858 656.544 901.378 656.832C900.898 657.104 900.442 657.472 900.01 657.936L898.474 656.448C899.738 654.976 901.258 654.24 903.034 654.24ZM902.194 664.2C902.786 664.2 903.33 664.056 903.826 663.768C904.322 663.464 904.714 663.056 905.002 662.544C905.29 662.032 905.434 661.464 905.434 660.84V660.48L902.074 661.08C901.498 661.192 901.05 661.392 900.73 661.68C900.426 661.952 900.274 662.272 900.274 662.64C900.274 663.072 900.45 663.44 900.802 663.744C901.154 664.048 901.618 664.2 902.194 664.2ZM918.676 654.48H921.148L916.468 667.32C915.572 669.8 914.172 671.04 912.268 671.04C911.916 671.04 911.572 671 911.236 670.92C910.916 670.856 910.66 670.776 910.468 670.68V668.4C910.612 668.512 910.812 668.608 911.068 668.688C911.34 668.768 911.62 668.808 911.908 668.808C912.372 668.808 912.788 668.664 913.156 668.376C913.524 668.088 913.804 667.696 913.996 667.2L914.476 666L909.388 654.48H912.004L915.724 663.168H915.772L918.676 654.48ZM926.18 661.44H924.26L923.78 649.2H926.66L926.18 661.44ZM925.22 666.24C924.804 666.24 924.436 666.088 924.116 665.784C923.812 665.464 923.66 665.096 923.66 664.68C923.66 664.264 923.812 663.904 924.116 663.6C924.436 663.28 924.804 663.12 925.22 663.12C925.636 663.12 925.996 663.28 926.3 663.6C926.62 663.904 926.78 664.264 926.78 664.68C926.78 665.096 926.62 665.464 926.3 665.784C925.996 666.088 925.636 666.24 925.22 666.24ZM941.421 666.24C940.317 666.24 939.301 665.976 938.373 665.448C937.461 664.92 936.741 664.2 936.213 663.288C935.685 662.36 935.421 661.344 935.421 660.24C935.421 659.136 935.685 658.128 936.213 657.216C936.741 656.288 937.461 655.56 938.373 655.032C939.301 654.504 940.317 654.24 941.421 654.24C942.509 654.24 943.469 654.472 944.301 654.936C945.133 655.384 945.797 655.92 946.293 656.544L944.565 658.008C943.669 657.016 942.621 656.52 941.421 656.52C940.749 656.52 940.133 656.68 939.573 657C939.029 657.32 938.597 657.768 938.277 658.344C937.973 658.904 937.821 659.536 937.821 660.24C937.821 660.944 937.973 661.584 938.277 662.16C938.597 662.72 939.029 663.16 939.573 663.48C940.133 663.8 940.749 663.96 941.421 663.96C942.109 663.96 942.725 663.816 943.269 663.528C943.829 663.224 944.301 662.848 944.685 662.4L946.413 663.864C945.901 664.504 945.213 665.064 944.349 665.544C943.485 666.008 942.509 666.24 941.421 666.24ZM951.223 666H948.823V649.2H951.223V666ZM957.223 666H954.823V654.48H957.223V666ZM956.023 652.32C955.655 652.32 955.319 652.184 955.015 651.912C954.727 651.624 954.583 651.28 954.583 650.88C954.583 650.48 954.727 650.144 955.015 649.872C955.319 649.584 955.655 649.44 956.023 649.44C956.391 649.44 956.719 649.584 957.007 649.872C957.311 650.144 957.463 650.48 957.463 650.88C957.463 651.28 957.311 651.624 957.007 651.912C956.719 652.184 956.391 652.32 956.023 652.32ZM965.983 666.24C964.879 666.24 963.863 665.976 962.935 665.448C962.023 664.92 961.303 664.2 960.775 663.288C960.247 662.36 959.983 661.344 959.983 660.24C959.983 659.136 960.247 658.128 960.775 657.216C961.303 656.288 962.023 655.56 962.935 655.032C963.863 654.504 964.879 654.24 965.983 654.24C967.071 654.24 968.031 654.472 968.863 654.936C969.695 655.384 970.359 655.92 970.855 656.544L969.127 658.008C968.231 657.016 967.183 656.52 965.983 656.52C965.311 656.52 964.695 656.68 964.135 657C963.591 657.32 963.159 657.768 962.839 658.344C962.535 658.904 962.383 659.536 962.383 660.24C962.383 660.944 962.535 661.584 962.839 662.16C963.159 662.72 963.591 663.16 964.135 663.48C964.695 663.8 965.311 663.96 965.983 663.96C966.671 663.96 967.287 663.816 967.831 663.528C968.391 663.224 968.863 662.848 969.247 662.4L970.975 663.864C970.463 664.504 969.775 665.064 968.911 665.544C968.047 666.008 967.071 666.24 965.983 666.24ZM975.786 666H973.386V649.2H975.786V659.76L980.706 654.48H983.706L979.266 659.16L984.066 666H981.306L977.706 660.84L975.786 662.88V666ZM995.266 666.12C994.114 666.12 993.226 665.792 992.602 665.136C991.978 664.48 991.666 663.528 991.666 662.28V656.76H989.506V654.48H990.826C991.194 654.48 991.466 654.376 991.642 654.168C991.818 653.96 991.906 653.624 991.906 653.16V650.64H994.066V654.48H996.826V656.76H994.066V662.04C994.066 662.632 994.21 663.08 994.498 663.384C994.786 663.688 995.202 663.84 995.746 663.84C996.194 663.84 996.634 663.72 997.066 663.48V665.76C996.874 665.856 996.61 665.936 996.274 666C995.954 666.08 995.618 666.12 995.266 666.12ZM1004.75 666.24C1003.65 666.24 1002.63 665.976 1001.7 665.448C1000.79 664.92 1000.07 664.2 999.541 663.288C999.013 662.36 998.749 661.344 998.749 660.24C998.749 659.136 999.013 658.128 999.541 657.216C1000.07 656.288 1000.79 655.56 1001.7 655.032C1002.63 654.504 1003.65 654.24 1004.75 654.24C1005.85 654.24 1006.86 654.504 1007.77 655.032C1008.7 655.56 1009.43 656.288 1009.96 657.216C1010.49 658.128 1010.75 659.136 1010.75 660.24C1010.75 661.344 1010.49 662.36 1009.96 663.288C1009.43 664.2 1008.7 664.92 1007.77 665.448C1006.86 665.976 1005.85 666.24 1004.75 666.24ZM1004.75 663.96C1005.42 663.96 1006.03 663.8 1006.57 663.48C1007.13 663.16 1007.57 662.72 1007.87 662.16C1008.19 661.584 1008.35 660.944 1008.35 660.24C1008.35 659.536 1008.19 658.904 1007.87 658.344C1007.57 657.768 1007.13 657.32 1006.57 657C1006.03 656.68 1005.42 656.52 1004.75 656.52C1004.08 656.52 1003.46 656.68 1002.9 657C1002.36 657.32 1001.93 657.768 1001.61 658.344C1001.3 658.904 1001.15 659.536 1001.15 660.24C1001.15 660.944 1001.3 661.584 1001.61 662.16C1001.93 662.72 1002.36 663.16 1002.9 663.48C1003.46 663.8 1004.08 663.96 1004.75 663.96ZM1022.64 666.24C1021.65 666.24 1020.75 666.024 1019.93 665.592C1019.11 665.144 1018.5 664.64 1018.08 664.08L1019.64 662.52C1019.98 662.92 1020.42 663.28 1020.96 663.6C1021.51 663.92 1022.07 664.08 1022.67 664.08C1023.31 664.08 1023.8 663.944 1024.15 663.672C1024.51 663.4 1024.68 663.064 1024.68 662.664C1024.68 662.312 1024.5 662.04 1024.13 661.848C1023.78 661.64 1023.22 661.424 1022.45 661.2C1021.65 660.96 1020.99 660.72 1020.46 660.48C1019.95 660.24 1019.5 659.888 1019.11 659.424C1018.75 658.96 1018.56 658.352 1018.56 657.6C1018.56 656.992 1018.73 656.432 1019.07 655.92C1019.4 655.408 1019.89 655 1020.53 654.696C1021.17 654.392 1021.91 654.24 1022.76 654.24C1023.67 654.24 1024.48 654.4 1025.19 654.72C1025.91 655.04 1026.46 655.4 1026.84 655.8L1025.28 657.36C1025.01 657.104 1024.65 656.88 1024.2 656.688C1023.75 656.496 1023.27 656.4 1022.76 656.4C1022.2 656.4 1021.76 656.52 1021.44 656.76C1021.12 657 1020.96 657.28 1020.96 657.6C1020.96 657.952 1021.13 658.224 1021.47 658.416C1021.82 658.592 1022.39 658.8 1023.17 659.04C1023.99 659.28 1024.65 659.52 1025.16 659.76C1025.69 660 1026.14 660.352 1026.51 660.816C1026.89 661.28 1027.08 661.888 1027.08 662.64C1027.08 663.28 1026.9 663.88 1026.53 664.44C1026.18 664.984 1025.67 665.424 1024.99 665.76C1024.32 666.08 1023.54 666.24 1022.64 666.24ZM1034.41 666.12C1033.25 666.12 1032.37 665.792 1031.74 665.136C1031.12 664.48 1030.81 663.528 1030.81 662.28V656.76H1028.65V654.48H1029.97C1030.33 654.48 1030.61 654.376 1030.78 654.168C1030.96 653.96 1031.05 653.624 1031.05 653.16V650.64H1033.21V654.48H1035.97V656.76H1033.21V662.04C1033.21 662.632 1033.35 663.08 1033.64 663.384C1033.93 663.688 1034.34 663.84 1034.89 663.84C1035.33 663.84 1035.77 663.72 1036.21 663.48V665.76C1036.01 665.856 1035.75 665.936 1035.41 666C1035.09 666.08 1034.76 666.12 1034.41 666.12ZM1043.05 654.24C1043.99 654.24 1044.83 654.432 1045.55 654.816C1046.28 655.2 1046.85 655.736 1047.25 656.424C1047.65 657.096 1047.85 657.848 1047.85 658.68V666H1045.57V664.368H1045.55C1045.24 664.848 1044.75 665.28 1044.06 665.664C1043.37 666.048 1042.61 666.24 1041.78 666.24C1041.03 666.24 1040.35 666.088 1039.76 665.784C1039.17 665.48 1038.71 665.072 1038.37 664.56C1038.05 664.032 1037.89 663.472 1037.89 662.88C1037.89 661.92 1038.2 661.12 1038.83 660.48C1039.47 659.84 1040.35 659.424 1041.49 659.232L1045.45 658.56V658.512C1045.45 657.92 1045.22 657.424 1044.75 657.024C1044.31 656.608 1043.74 656.4 1043.05 656.4C1042.43 656.4 1041.87 656.544 1041.39 656.832C1040.91 657.104 1040.46 657.472 1040.03 657.936L1038.49 656.448C1039.75 654.976 1041.27 654.24 1043.05 654.24ZM1042.21 664.2C1042.8 664.2 1043.35 664.056 1043.84 663.768C1044.34 663.464 1044.73 663.056 1045.02 662.544C1045.31 662.032 1045.45 661.464 1045.45 660.84V660.48L1042.09 661.08C1041.51 661.192 1041.07 661.392 1040.75 661.68C1040.44 661.952 1040.29 662.272 1040.29 662.64C1040.29 663.072 1040.47 663.44 1040.82 663.744C1041.17 664.048 1041.63 664.2 1042.21 664.2ZM1051.08 666V654.48H1053.48V655.992H1053.53C1053.83 655.544 1054.29 655.144 1054.89 654.792C1055.52 654.424 1056.21 654.24 1056.96 654.24H1057.56V656.76C1057.19 656.68 1056.87 656.64 1056.6 656.64C1056.04 656.64 1055.52 656.792 1055.04 657.096C1054.56 657.384 1054.17 657.8 1053.89 658.344C1053.61 658.872 1053.48 659.464 1053.48 660.12V666H1051.08ZM1064.41 666.12C1063.25 666.12 1062.37 665.792 1061.74 665.136C1061.12 664.48 1060.81 663.528 1060.81 662.28V656.76H1058.65V654.48H1059.97C1060.33 654.48 1060.61 654.376 1060.78 654.168C1060.96 653.96 1061.05 653.624 1061.05 653.16V650.64H1063.21V654.48H1065.97V656.76H1063.21V662.04C1063.21 662.632 1063.35 663.08 1063.64 663.384C1063.93 663.688 1064.34 663.84 1064.89 663.84C1065.33 663.84 1065.77 663.72 1066.21 663.48V665.76C1066.01 665.856 1065.75 665.936 1065.41 666C1065.09 666.08 1064.76 666.12 1064.41 666.12ZM1078.35 654.24C1079.29 654.24 1080.12 654.432 1080.84 654.816C1081.58 655.2 1082.15 655.736 1082.55 656.424C1082.95 657.096 1083.15 657.848 1083.15 658.68V666H1080.87V664.368H1080.84C1080.54 664.848 1080.04 665.28 1079.35 665.664C1078.67 666.048 1077.91 666.24 1077.07 666.24C1076.32 666.24 1075.65 666.088 1075.06 665.784C1074.47 665.48 1074 665.072 1073.67 664.56C1073.35 664.032 1073.19 663.472 1073.19 662.88C1073.19 661.92 1073.5 661.12 1074.12 660.48C1074.76 659.84 1075.65 659.424 1076.79 659.232L1080.75 658.56V658.512C1080.75 657.92 1080.51 657.424 1080.05 657.024C1079.6 656.608 1079.03 656.4 1078.35 656.4C1077.72 656.4 1077.17 656.544 1076.69 656.832C1076.21 657.104 1075.75 657.472 1075.32 657.936L1073.79 656.448C1075.05 654.976 1076.57 654.24 1078.35 654.24ZM1077.51 664.2C1078.1 664.2 1078.64 664.056 1079.14 663.768C1079.63 663.464 1080.03 663.056 1080.31 662.544C1080.6 662.032 1080.75 661.464 1080.75 660.84V660.48L1077.39 661.08C1076.81 661.192 1076.36 661.392 1076.04 661.68C1075.74 661.952 1075.59 662.272 1075.59 662.64C1075.59 663.072 1075.76 663.44 1076.11 663.744C1076.47 664.048 1076.93 664.2 1077.51 664.2ZM1091.06 671.04C1089.97 671.04 1088.96 670.792 1088.03 670.296C1087.1 669.8 1086.43 669.248 1086.02 668.64L1087.7 667.08C1088 667.496 1088.46 667.88 1089.09 668.232C1089.71 668.584 1090.37 668.76 1091.06 668.76C1092.13 668.76 1092.98 668.424 1093.6 667.752C1094.22 667.08 1094.54 666.176 1094.54 665.04V664.008H1094.51C1094.19 664.456 1093.7 664.864 1093.02 665.232C1092.37 665.584 1091.63 665.76 1090.82 665.76C1089.9 665.76 1089.05 665.512 1088.25 665.016C1087.46 664.52 1086.83 663.832 1086.35 662.952C1085.89 662.072 1085.66 661.088 1085.66 660C1085.66 658.912 1085.89 657.928 1086.35 657.048C1086.83 656.168 1087.46 655.48 1088.25 654.984C1089.05 654.488 1089.9 654.24 1090.82 654.24C1091.63 654.24 1092.37 654.424 1093.02 654.792C1093.7 655.144 1094.19 655.544 1094.51 655.992H1094.54V654.48H1096.94V665.04C1096.94 666.192 1096.69 667.224 1096.19 668.136C1095.7 669.048 1095 669.76 1094.1 670.272C1093.21 670.784 1092.19 671.04 1091.06 671.04ZM1091.3 663.48C1091.89 663.48 1092.43 663.336 1092.93 663.048C1093.42 662.744 1093.82 662.328 1094.1 661.8C1094.39 661.272 1094.54 660.672 1094.54 660C1094.54 659.328 1094.39 658.728 1094.1 658.2C1093.82 657.672 1093.42 657.264 1092.93 656.976C1092.43 656.672 1091.89 656.52 1091.3 656.52C1090.7 656.52 1090.16 656.672 1089.66 656.976C1089.17 657.264 1088.78 657.672 1088.49 658.2C1088.2 658.728 1088.06 659.328 1088.06 660C1088.06 660.672 1088.2 661.272 1088.49 661.8C1088.78 662.328 1089.17 662.744 1089.66 663.048C1090.16 663.336 1090.7 663.48 1091.3 663.48ZM1104.74 654.24C1105.68 654.24 1106.51 654.432 1107.23 654.816C1107.97 655.2 1108.54 655.736 1108.94 656.424C1109.34 657.096 1109.54 657.848 1109.54 658.68V666H1107.26V664.368H1107.23C1106.93 664.848 1106.43 665.28 1105.75 665.664C1105.06 666.048 1104.3 666.24 1103.47 666.24C1102.71 666.24 1102.04 666.088 1101.45 665.784C1100.86 665.48 1100.39 665.072 1100.06 664.56C1099.74 664.032 1099.58 663.472 1099.58 662.88C1099.58 661.92 1099.89 661.12 1100.51 660.48C1101.15 659.84 1102.04 659.424 1103.18 659.232L1107.14 658.56V658.512C1107.14 657.92 1106.91 657.424 1106.44 657.024C1105.99 656.608 1105.43 656.4 1104.74 656.4C1104.11 656.4 1103.56 656.544 1103.08 656.832C1102.6 657.104 1102.15 657.472 1101.71 657.936L1100.18 656.448C1101.44 654.976 1102.96 654.24 1104.74 654.24ZM1103.9 664.2C1104.49 664.2 1105.03 664.056 1105.53 663.768C1106.03 663.464 1106.42 663.056 1106.71 662.544C1106.99 662.032 1107.14 661.464 1107.14 660.84V660.48L1103.78 661.08C1103.2 661.192 1102.75 661.392 1102.43 661.68C1102.13 661.952 1101.98 662.272 1101.98 662.64C1101.98 663.072 1102.15 663.44 1102.51 663.744C1102.86 664.048 1103.32 664.2 1103.9 664.2ZM1115.29 666H1112.89V654.48H1115.29V666ZM1114.09 652.32C1113.72 652.32 1113.38 652.184 1113.08 651.912C1112.79 651.624 1112.65 651.28 1112.65 650.88C1112.65 650.48 1112.79 650.144 1113.08 649.872C1113.38 649.584 1113.72 649.44 1114.09 649.44C1114.45 649.44 1114.78 649.584 1115.07 649.872C1115.37 650.144 1115.53 650.48 1115.53 650.88C1115.53 651.28 1115.37 651.624 1115.07 651.912C1114.78 652.184 1114.45 652.32 1114.09 652.32ZM1118.77 666V654.48H1121.17V656.112H1121.19C1121.49 655.632 1121.97 655.2 1122.61 654.816C1123.26 654.432 1123.98 654.24 1124.77 654.24C1125.65 654.24 1126.43 654.448 1127.12 654.864C1127.81 655.264 1128.34 655.848 1128.73 656.616C1129.13 657.368 1129.33 658.256 1129.33 659.28V666H1126.93V659.28C1126.93 658.448 1126.68 657.784 1126.18 657.288C1125.7 656.776 1125.07 656.52 1124.29 656.52C1123.37 656.52 1122.62 656.824 1122.03 657.432C1121.45 658.024 1121.17 658.8 1121.17 659.76V666H1118.77Z" fill="#FF6B00"/>
</g>
<defs>
<clipPath id="clip0_1_2">
<rect width="1920" height="1080" fill="white"/>
</clipPath>
</defs>
</svg>
