<svg width="1920" height="1080" viewBox="0 0 1920 1080" fill="none" xmlns="http://www.w3.org/2000/svg">
<g clip-path="url(#clip0_1_6)">
<rect width="1920" height="1080" fill="#247E3E"/>
<rect y="915" width="1920" height="165" fill="#1C4F2A"/>
<path d="M1638.36 973.12C1637.21 973.12 1636.32 972.792 1635.7 972.136C1635.07 971.48 1634.76 970.528 1634.76 969.28V963.76H1632.6V961.48H1633.92C1634.29 961.48 1634.56 961.376 1634.74 961.168C1634.91 960.96 1635 960.624 1635 960.16V957.64H1637.16V961.48H1639.92V963.76H1637.16V969.04C1637.16 969.632 1637.3 970.08 1637.59 970.384C1637.88 970.688 1638.3 970.84 1638.84 970.84C1639.29 970.84 1639.73 970.72 1640.16 970.48V972.76C1639.97 972.856 1639.7 972.936 1639.37 973C1639.05 973.08 1638.71 973.12 1638.36 973.12ZM1642.8 973V961.48H1645.2V962.992H1645.25C1645.55 962.544 1646.01 962.144 1646.61 961.792C1647.24 961.424 1647.93 961.24 1648.68 961.24H1649.28V963.76C1648.91 963.68 1648.59 963.64 1648.32 963.64C1647.76 963.64 1647.24 963.792 1646.76 964.096C1646.28 964.384 1645.89 964.8 1645.61 965.344C1645.33 965.872 1645.2 966.464 1645.2 967.12V973H1642.8ZM1659.76 961.48H1662.23L1657.55 974.32C1656.66 976.8 1655.26 978.04 1653.35 978.04C1653 978.04 1652.66 978 1652.32 977.92C1652 977.856 1651.75 977.776 1651.55 977.68V975.4C1651.7 975.512 1651.9 975.608 1652.15 975.688C1652.43 975.768 1652.71 975.808 1652.99 975.808C1653.46 975.808 1653.87 975.664 1654.24 975.376C1654.61 975.088 1654.89 974.696 1655.08 974.2L1655.56 973L1650.47 961.48H1653.09L1656.81 970.168H1656.86L1659.76 961.48ZM1669.33 973V961.48H1671.73V963.112H1671.75C1672.06 962.632 1672.53 962.2 1673.17 961.816C1673.82 961.432 1674.54 961.24 1675.33 961.24C1676.21 961.24 1676.99 961.448 1677.68 961.864C1678.37 962.264 1678.9 962.848 1679.29 963.616C1679.69 964.368 1679.89 965.256 1679.89 966.28V973H1677.49V966.28C1677.49 965.448 1677.24 964.784 1676.74 964.288C1676.26 963.776 1675.63 963.52 1674.85 963.52C1673.94 963.52 1673.18 963.824 1672.59 964.432C1672.02 965.024 1671.73 965.8 1671.73 966.76V973H1669.33ZM1688.41 973.24C1687.31 973.24 1686.29 972.976 1685.37 972.448C1684.45 971.92 1683.73 971.2 1683.21 970.288C1682.68 969.36 1682.41 968.344 1682.41 967.24C1682.41 966.136 1682.68 965.128 1683.21 964.216C1683.73 963.288 1684.45 962.56 1685.37 962.032C1686.29 961.504 1687.31 961.24 1688.41 961.24C1689.52 961.24 1690.53 961.504 1691.44 962.032C1692.37 962.56 1693.09 963.288 1693.62 964.216C1694.15 965.128 1694.41 966.136 1694.41 967.24C1694.41 968.344 1694.15 969.36 1693.62 970.288C1693.09 971.2 1692.37 971.92 1691.44 972.448C1690.53 972.976 1689.52 973.24 1688.41 973.24ZM1688.41 970.96C1689.09 970.96 1689.69 970.8 1690.24 970.48C1690.8 970.16 1691.23 969.72 1691.53 969.16C1691.85 968.584 1692.01 967.944 1692.01 967.24C1692.01 966.536 1691.85 965.904 1691.53 965.344C1691.23 964.768 1690.8 964.32 1690.24 964C1689.69 963.68 1689.09 963.52 1688.41 963.52C1687.74 963.52 1687.13 963.68 1686.57 964C1686.02 964.32 1685.59 964.768 1685.27 965.344C1684.97 965.904 1684.81 966.536 1684.81 967.24C1684.81 967.944 1684.97 968.584 1685.27 969.16C1685.59 969.72 1686.02 970.16 1686.57 970.48C1687.13 970.8 1687.74 970.96 1688.41 970.96ZM1701.74 973.12C1700.58 973.12 1699.7 972.792 1699.07 972.136C1698.45 971.48 1698.14 970.528 1698.14 969.28V963.76H1695.98V961.48H1697.3C1697.66 961.48 1697.94 961.376 1698.11 961.168C1698.29 960.96 1698.38 960.624 1698.38 960.16V957.64H1700.54V961.48H1703.3V963.76H1700.54V969.04C1700.54 969.632 1700.68 970.08 1700.97 970.384C1701.26 970.688 1701.67 970.84 1702.22 970.84C1702.66 970.84 1703.1 970.72 1703.54 970.48V972.76C1703.34 972.856 1703.08 972.936 1702.74 973C1702.42 973.08 1702.09 973.12 1701.74 973.12ZM1715.45 973.12C1714.29 973.12 1713.41 972.792 1712.78 972.136C1712.16 971.48 1711.85 970.528 1711.85 969.28V963.76H1709.69V961.48H1711.01C1711.37 961.48 1711.65 961.376 1711.82 961.168C1712 960.96 1712.09 960.624 1712.09 960.16V957.64H1714.25V961.48H1717.01V963.76H1714.25V969.04C1714.25 969.632 1714.39 970.08 1714.68 970.384C1714.97 970.688 1715.38 970.84 1715.93 970.84C1716.37 970.84 1716.81 970.72 1717.25 970.48V972.76C1717.05 972.856 1716.79 972.936 1716.45 973C1716.13 973.08 1715.8 973.12 1715.45 973.12ZM1724.93 973.24C1723.82 973.24 1722.81 972.976 1721.88 972.448C1720.97 971.92 1720.25 971.2 1719.72 970.288C1719.19 969.36 1718.93 968.344 1718.93 967.24C1718.93 966.136 1719.19 965.128 1719.72 964.216C1720.25 963.288 1720.97 962.56 1721.88 962.032C1722.81 961.504 1723.82 961.24 1724.93 961.24C1726.03 961.24 1727.04 961.504 1727.95 962.032C1728.88 962.56 1729.61 963.288 1730.14 964.216C1730.66 965.128 1730.93 966.136 1730.93 967.24C1730.93 968.344 1730.66 969.36 1730.14 970.288C1729.61 971.2 1728.88 971.92 1727.95 972.448C1727.04 972.976 1726.03 973.24 1724.93 973.24ZM1724.93 970.96C1725.6 970.96 1726.21 970.8 1726.75 970.48C1727.31 970.16 1727.74 969.72 1728.05 969.16C1728.37 968.584 1728.53 967.944 1728.53 967.24C1728.53 966.536 1728.37 965.904 1728.05 965.344C1727.74 964.768 1727.31 964.32 1726.75 964C1726.21 963.68 1725.6 963.52 1724.93 963.52C1724.26 963.52 1723.64 963.68 1723.08 964C1722.54 964.32 1722.1 964.768 1721.78 965.344C1721.48 965.904 1721.33 966.536 1721.33 967.24C1721.33 967.944 1721.48 968.584 1721.78 969.16C1722.1 969.72 1722.54 970.16 1723.08 970.48C1723.64 970.8 1724.26 970.96 1724.93 970.96ZM1744.38 973.24C1743.28 973.24 1742.26 972.976 1741.33 972.448C1740.42 971.92 1739.7 971.2 1739.17 970.288C1738.65 969.36 1738.38 968.344 1738.38 967.24C1738.38 966.136 1738.65 965.128 1739.17 964.216C1739.7 963.288 1740.42 962.56 1741.33 962.032C1742.26 961.504 1743.28 961.24 1744.38 961.24C1745.47 961.24 1746.43 961.472 1747.26 961.936C1748.09 962.384 1748.76 962.92 1749.25 963.544L1747.53 965.008C1746.63 964.016 1745.58 963.52 1744.38 963.52C1743.71 963.52 1743.09 963.68 1742.53 964C1741.99 964.32 1741.56 964.768 1741.24 965.344C1740.93 965.904 1740.78 966.536 1740.78 967.24C1740.78 967.944 1740.93 968.584 1741.24 969.16C1741.56 969.72 1741.99 970.16 1742.53 970.48C1743.09 970.8 1743.71 970.96 1744.38 970.96C1745.07 970.96 1745.69 970.816 1746.23 970.528C1746.79 970.224 1747.26 969.848 1747.65 969.4L1749.37 970.864C1748.86 971.504 1748.17 972.064 1747.31 972.544C1746.45 973.008 1745.47 973.24 1744.38 973.24ZM1751.66 973V961.48H1754.06V962.992H1754.11C1754.42 962.544 1754.87 962.144 1755.48 961.792C1756.1 961.424 1756.79 961.24 1757.54 961.24H1758.14V963.76C1757.78 963.68 1757.46 963.64 1757.18 963.64C1756.62 963.64 1756.1 963.792 1755.62 964.096C1755.14 964.384 1754.76 964.8 1754.47 965.344C1754.2 965.872 1754.06 966.464 1754.06 967.12V973H1751.66ZM1764.75 973.24C1763.87 973.24 1763.09 973.04 1762.4 972.64C1761.71 972.224 1761.17 971.64 1760.77 970.888C1760.38 970.12 1760.19 969.224 1760.19 968.2V961.48H1762.59V968.2C1762.59 969.032 1762.83 969.704 1763.31 970.216C1763.81 970.712 1764.45 970.96 1765.23 970.96C1766.14 970.96 1766.89 970.664 1767.46 970.072C1768.06 969.464 1768.35 968.68 1768.35 967.72V961.48H1770.75V973H1768.35V971.368H1768.33C1768.02 971.848 1767.54 972.28 1766.89 972.664C1766.25 973.048 1765.54 973.24 1764.75 973.24ZM1777.84 973.24C1776.85 973.24 1775.94 973.024 1775.13 972.592C1774.31 972.144 1773.69 971.64 1773.28 971.08L1774.84 969.52C1775.17 969.92 1775.61 970.28 1776.16 970.6C1776.7 970.92 1777.27 971.08 1777.86 971.08C1778.5 971.08 1779 970.944 1779.35 970.672C1779.7 970.4 1779.88 970.064 1779.88 969.664C1779.88 969.312 1779.69 969.04 1779.33 968.848C1778.97 968.64 1778.41 968.424 1777.65 968.2C1776.85 967.96 1776.18 967.72 1775.65 967.48C1775.14 967.24 1774.69 966.888 1774.31 966.424C1773.94 965.96 1773.76 965.352 1773.76 964.6C1773.76 963.992 1773.93 963.432 1774.26 962.92C1774.6 962.408 1775.09 962 1775.73 961.696C1776.37 961.392 1777.11 961.24 1777.96 961.24C1778.87 961.24 1779.68 961.4 1780.38 961.72C1781.1 962.04 1781.65 962.4 1782.04 962.8L1780.48 964.36C1780.21 964.104 1779.85 963.88 1779.4 963.688C1778.95 963.496 1778.47 963.4 1777.96 963.4C1777.4 963.4 1776.96 963.52 1776.64 963.76C1776.32 964 1776.16 964.28 1776.16 964.6C1776.16 964.952 1776.33 965.224 1776.66 965.416C1777.01 965.592 1777.58 965.8 1778.37 966.04C1779.18 966.28 1779.85 966.52 1780.36 966.76C1780.89 967 1781.33 967.352 1781.7 967.816C1782.09 968.28 1782.28 968.888 1782.28 969.64C1782.28 970.28 1782.09 970.88 1781.73 971.44C1781.37 971.984 1780.86 972.424 1780.19 972.76C1779.52 973.08 1778.73 973.24 1777.84 973.24ZM1785.04 973V956.2H1787.44V963.112H1787.47C1787.77 962.632 1788.24 962.2 1788.88 961.816C1789.54 961.432 1790.26 961.24 1791.04 961.24C1791.92 961.24 1792.71 961.448 1793.39 961.864C1794.08 962.264 1794.62 962.848 1795 963.616C1795.4 964.368 1795.6 965.256 1795.6 966.28V973H1793.2V966.28C1793.2 965.448 1792.95 964.784 1792.46 964.288C1791.98 963.776 1791.35 963.52 1790.56 963.52C1789.65 963.52 1788.9 963.824 1788.31 964.432C1787.73 965.024 1787.44 965.8 1787.44 966.76V973H1785.04ZM1808.59 973.12C1807.43 973.12 1806.55 972.792 1805.92 972.136C1805.3 971.48 1804.99 970.528 1804.99 969.28V963.76H1802.83V961.48H1804.15C1804.51 961.48 1804.79 961.376 1804.96 961.168C1805.14 960.96 1805.23 960.624 1805.23 960.16V957.64H1807.39V961.48H1810.15V963.76H1807.39V969.04C1807.39 969.632 1807.53 970.08 1807.82 970.384C1808.11 970.688 1808.52 970.84 1809.07 970.84C1809.51 970.84 1809.95 970.72 1810.39 970.48V972.76C1810.19 972.856 1809.93 972.936 1809.59 973C1809.27 973.08 1808.94 973.12 1808.59 973.12ZM1813.14 973V956.2H1815.54V963.112H1815.57C1815.87 962.632 1816.34 962.2 1816.98 961.816C1817.64 961.432 1818.36 961.24 1819.14 961.24C1820.02 961.24 1820.81 961.448 1821.5 961.864C1822.18 962.264 1822.72 962.848 1823.1 963.616C1823.5 964.368 1823.7 965.256 1823.7 966.28V973H1821.3V966.28C1821.3 965.448 1821.06 964.784 1820.56 964.288C1820.08 963.776 1819.45 963.52 1818.66 963.52C1817.75 963.52 1817 963.824 1816.41 964.432C1815.83 965.024 1815.54 965.8 1815.54 966.76V973H1813.14ZM1832.23 973.24C1831.12 973.24 1830.11 972.976 1829.18 972.448C1828.27 971.92 1827.55 971.2 1827.02 970.288C1826.49 969.36 1826.23 968.344 1826.23 967.24C1826.23 966.136 1826.49 965.128 1827.02 964.216C1827.55 963.304 1828.26 962.584 1829.15 962.056C1830.05 961.512 1831.03 961.24 1832.11 961.24C1833.18 961.24 1834.14 961.488 1834.99 961.984C1835.85 962.464 1836.52 963.136 1837 964C1837.5 964.848 1837.75 965.808 1837.75 966.88C1837.75 967.312 1837.71 967.712 1837.63 968.08H1828.75C1828.87 968.88 1829.27 969.56 1829.95 970.12C1830.62 970.68 1831.42 970.96 1832.35 970.96C1833.51 970.96 1834.59 970.496 1835.59 969.568L1837.15 971.104C1836.7 971.664 1836.04 972.16 1835.18 972.592C1834.33 973.024 1833.35 973.24 1832.23 973.24ZM1835.25 966.16C1835.07 965.312 1834.71 964.64 1834.17 964.144C1833.63 963.648 1832.94 963.4 1832.11 963.4C1831.21 963.4 1830.47 963.648 1829.9 964.144C1829.34 964.64 1828.94 965.312 1828.7 966.16H1835.25ZM1640.16 994.24C1639.26 994.24 1638.46 994.048 1637.74 993.664C1637.03 993.28 1636.53 992.848 1636.22 992.368H1636.2V994H1633.8V977.2H1636.2V984.112H1636.22C1636.53 983.632 1637.03 983.2 1637.74 982.816C1638.46 982.432 1639.26 982.24 1640.16 982.24C1641.12 982.24 1642.01 982.504 1642.82 983.032C1643.66 983.544 1644.32 984.256 1644.82 985.168C1645.31 986.08 1645.56 987.104 1645.56 988.24C1645.56 989.376 1645.31 990.4 1644.82 991.312C1644.32 992.224 1643.66 992.944 1642.82 993.472C1642.01 993.984 1641.12 994.24 1640.16 994.24ZM1639.68 991.96C1640.32 991.96 1640.9 991.8 1641.43 991.48C1641.96 991.16 1642.38 990.72 1642.68 990.16C1643 989.584 1643.16 988.944 1643.16 988.24C1643.16 987.536 1643 986.904 1642.68 986.344C1642.38 985.768 1641.96 985.32 1641.43 985C1640.9 984.68 1640.32 984.52 1639.68 984.52C1639.04 984.52 1638.46 984.68 1637.93 985C1637.4 985.32 1636.98 985.768 1636.66 986.344C1636.35 986.904 1636.2 987.536 1636.2 988.24C1636.2 988.944 1636.35 989.584 1636.66 990.16C1636.98 990.72 1637.4 991.16 1637.93 991.48C1638.46 991.8 1639.04 991.96 1639.68 991.96ZM1650.73 994H1648.33V982.48H1650.73V994ZM1649.53 980.32C1649.16 980.32 1648.83 980.184 1648.52 979.912C1648.24 979.624 1648.09 979.28 1648.09 978.88C1648.09 978.48 1648.24 978.144 1648.52 977.872C1648.83 977.584 1649.16 977.44 1649.53 977.44C1649.9 977.44 1650.23 977.584 1650.52 977.872C1650.82 978.144 1650.97 978.48 1650.97 978.88C1650.97 979.28 1650.82 979.624 1650.52 979.912C1650.23 980.184 1649.9 980.32 1649.53 980.32ZM1658.65 994.24C1657.77 994.24 1656.99 994.04 1656.3 993.64C1655.61 993.224 1655.07 992.64 1654.67 991.888C1654.28 991.12 1654.09 990.224 1654.09 989.2V982.48H1656.49V989.2C1656.49 990.032 1656.73 990.704 1657.21 991.216C1657.71 991.712 1658.35 991.96 1659.13 991.96C1660.04 991.96 1660.79 991.664 1661.36 991.072C1661.96 990.464 1662.25 989.68 1662.25 988.72V982.48H1664.65V994H1662.25V992.368H1662.23C1661.92 992.848 1661.44 993.28 1660.79 993.664C1660.15 994.048 1659.44 994.24 1658.65 994.24ZM1670.54 994H1668.14V977.2H1670.54V994ZM1678.7 994.24C1677.74 994.24 1676.84 993.984 1676.01 993.472C1675.19 992.944 1674.54 992.224 1674.04 991.312C1673.54 990.4 1673.3 989.376 1673.3 988.24C1673.3 987.104 1673.54 986.08 1674.04 985.168C1674.54 984.256 1675.19 983.544 1676.01 983.032C1676.84 982.504 1677.74 982.24 1678.7 982.24C1679.59 982.24 1680.39 982.432 1681.1 982.816C1681.82 983.2 1682.33 983.632 1682.63 984.112H1682.66V977.2H1685.06V994H1682.66V992.368H1682.63C1682.33 992.848 1681.82 993.28 1681.1 993.664C1680.39 994.048 1679.59 994.24 1678.7 994.24ZM1679.18 991.96C1679.82 991.96 1680.4 991.8 1680.93 991.48C1681.46 991.16 1681.87 990.72 1682.18 990.16C1682.5 989.584 1682.66 988.944 1682.66 988.24C1682.66 987.536 1682.5 986.904 1682.18 986.344C1681.87 985.768 1681.46 985.32 1680.93 985C1680.4 984.68 1679.82 984.52 1679.18 984.52C1678.54 984.52 1677.95 984.68 1677.42 985C1676.9 985.32 1676.47 985.768 1676.15 986.344C1675.85 986.904 1675.7 987.536 1675.7 988.24C1675.7 988.944 1675.85 989.584 1676.15 990.16C1676.47 990.72 1676.9 991.16 1677.42 991.48C1677.95 991.8 1678.54 991.96 1679.18 991.96ZM1691.07 994H1688.67V982.48H1691.07V994ZM1689.87 980.32C1689.5 980.32 1689.16 980.184 1688.86 979.912C1688.57 979.624 1688.43 979.28 1688.43 978.88C1688.43 978.48 1688.57 978.144 1688.86 977.872C1689.16 977.584 1689.5 977.44 1689.87 977.44C1690.24 977.44 1690.56 977.584 1690.85 977.872C1691.16 978.144 1691.31 978.48 1691.31 978.88C1691.31 979.28 1691.16 979.624 1690.85 979.912C1690.56 980.184 1690.24 980.32 1689.87 980.32ZM1694.55 994V982.48H1696.95V984.112H1696.97C1697.28 983.632 1697.75 983.2 1698.39 982.816C1699.04 982.432 1699.76 982.24 1700.55 982.24C1701.43 982.24 1702.21 982.448 1702.9 982.864C1703.59 983.264 1704.12 983.848 1704.51 984.616C1704.91 985.368 1705.11 986.256 1705.11 987.28V994H1702.71V987.28C1702.71 986.448 1702.46 985.784 1701.96 985.288C1701.48 984.776 1700.85 984.52 1700.07 984.52C1699.16 984.52 1698.4 984.824 1697.81 985.432C1697.24 986.024 1696.95 986.8 1696.95 987.76V994H1694.55ZM1713.03 999.04C1711.94 999.04 1710.94 998.792 1710.01 998.296C1709.08 997.8 1708.41 997.248 1707.99 996.64L1709.67 995.08C1709.98 995.496 1710.44 995.88 1711.06 996.232C1711.69 996.584 1712.34 996.76 1713.03 996.76C1714.1 996.76 1714.95 996.424 1715.58 995.752C1716.2 995.08 1716.51 994.176 1716.51 993.04V992.008H1716.49C1716.17 992.456 1715.67 992.864 1715 993.232C1714.34 993.584 1713.61 993.76 1712.79 993.76C1711.88 993.76 1711.02 993.512 1710.22 993.016C1709.44 992.52 1708.81 991.832 1708.33 990.952C1707.86 990.072 1707.63 989.088 1707.63 988C1707.63 986.912 1707.86 985.928 1708.33 985.048C1708.81 984.168 1709.44 983.48 1710.22 982.984C1711.02 982.488 1711.88 982.24 1712.79 982.24C1713.61 982.24 1714.34 982.424 1715 982.792C1715.67 983.144 1716.17 983.544 1716.49 983.992H1716.51V982.48H1718.91V993.04C1718.91 994.192 1718.66 995.224 1718.17 996.136C1717.67 997.048 1716.98 997.76 1716.08 998.272C1715.18 998.784 1714.17 999.04 1713.03 999.04ZM1713.27 991.48C1713.86 991.48 1714.41 991.336 1714.9 991.048C1715.4 990.744 1715.79 990.328 1716.08 989.8C1716.37 989.272 1716.51 988.672 1716.51 988C1716.51 987.328 1716.37 986.728 1716.08 986.2C1715.79 985.672 1715.4 985.264 1714.9 984.976C1714.41 984.672 1713.86 984.52 1713.27 984.52C1712.68 984.52 1712.14 984.672 1711.64 984.976C1711.14 985.264 1710.75 985.672 1710.46 986.2C1710.18 986.728 1710.03 987.328 1710.03 988C1710.03 988.672 1710.18 989.272 1710.46 989.8C1710.75 990.328 1711.14 990.744 1711.64 991.048C1712.14 991.336 1712.68 991.48 1713.27 991.48ZM1732.25 982.24C1733.19 982.24 1734.02 982.432 1734.74 982.816C1735.48 983.2 1736.05 983.736 1736.45 984.424C1736.85 985.096 1737.05 985.848 1737.05 986.68V994H1734.77V992.368H1734.74C1734.44 992.848 1733.94 993.28 1733.25 993.664C1732.57 994.048 1731.81 994.24 1730.97 994.24C1730.22 994.24 1729.55 994.088 1728.96 993.784C1728.37 993.48 1727.9 993.072 1727.57 992.56C1727.25 992.032 1727.09 991.472 1727.09 990.88C1727.09 989.92 1727.4 989.12 1728.02 988.48C1728.66 987.84 1729.55 987.424 1730.69 987.232L1734.65 986.56V986.512C1734.65 985.92 1734.41 985.424 1733.95 985.024C1733.5 984.608 1732.93 984.4 1732.25 984.4C1731.62 984.4 1731.07 984.544 1730.59 984.832C1730.11 985.104 1729.65 985.472 1729.22 985.936L1727.69 984.448C1728.95 982.976 1730.47 982.24 1732.25 982.24ZM1731.41 992.2C1732 992.2 1732.54 992.056 1733.04 991.768C1733.53 991.464 1733.93 991.056 1734.21 990.544C1734.5 990.032 1734.65 989.464 1734.65 988.84V988.48L1731.29 989.08C1730.71 989.192 1730.26 989.392 1729.94 989.68C1729.64 989.952 1729.49 990.272 1729.49 990.64C1729.49 991.072 1729.66 991.44 1730.01 991.744C1730.37 992.048 1730.83 992.2 1731.41 992.2ZM1740.27 994V982.48H1742.67V984.112H1742.7C1743 983.632 1743.47 983.2 1744.11 982.816C1744.77 982.432 1745.49 982.24 1746.27 982.24C1747.15 982.24 1747.94 982.448 1748.63 982.864C1749.31 983.264 1749.85 983.848 1750.23 984.616C1750.63 985.368 1750.83 986.256 1750.83 987.28V994H1748.43V987.28C1748.43 986.448 1748.19 985.784 1747.69 985.288C1747.21 984.776 1746.58 984.52 1745.79 984.52C1744.88 984.52 1744.13 984.824 1743.54 985.432C1742.96 986.024 1742.67 986.8 1742.67 987.76V994H1740.27ZM1758.76 994.24C1757.8 994.24 1756.9 993.984 1756.07 993.472C1755.25 992.944 1754.6 992.224 1754.1 991.312C1753.61 990.4 1753.36 989.376 1753.36 988.24C1753.36 987.104 1753.61 986.08 1754.1 985.168C1754.6 984.256 1755.25 983.544 1756.07 983.032C1756.9 982.504 1757.8 982.24 1758.76 982.24C1759.65 982.24 1760.45 982.432 1761.16 982.816C1761.88 983.2 1762.39 983.632 1762.69 984.112H1762.72V977.2H1765.12V994H1762.72V992.368H1762.69C1762.39 992.848 1761.88 993.28 1761.16 993.664C1760.45 994.048 1759.65 994.24 1758.76 994.24ZM1759.24 991.96C1759.88 991.96 1760.46 991.8 1760.99 991.48C1761.52 991.16 1761.93 990.72 1762.24 990.16C1762.56 989.584 1762.72 988.944 1762.72 988.24C1762.72 987.536 1762.56 986.904 1762.24 986.344C1761.93 985.768 1761.52 985.32 1760.99 985C1760.46 984.68 1759.88 984.52 1759.24 984.52C1758.6 984.52 1758.01 984.68 1757.49 985C1756.96 985.32 1756.53 985.768 1756.21 986.344C1755.91 986.904 1755.76 987.536 1755.76 988.24C1755.76 988.944 1755.91 989.584 1756.21 990.16C1756.53 990.72 1756.96 991.16 1757.49 991.48C1758.01 991.8 1758.6 991.96 1759.24 991.96ZM1778.35 994.12C1777.2 994.12 1776.31 993.792 1775.69 993.136C1775.06 992.48 1774.75 991.528 1774.75 990.28V984.76H1772.59V982.48H1773.91C1774.28 982.48 1774.55 982.376 1774.73 982.168C1774.9 981.96 1774.99 981.624 1774.99 981.16V978.64H1777.15V982.48H1779.91V984.76H1777.15V990.04C1777.15 990.632 1777.3 991.08 1777.58 991.384C1777.87 991.688 1778.29 991.84 1778.83 991.84C1779.28 991.84 1779.72 991.72 1780.15 991.48V993.76C1779.96 993.856 1779.7 993.936 1779.36 994C1779.04 994.08 1778.7 994.12 1778.35 994.12ZM1787.84 994.24C1786.73 994.24 1785.72 993.976 1784.79 993.448C1783.88 992.92 1783.16 992.2 1782.63 991.288C1782.1 990.36 1781.84 989.344 1781.84 988.24C1781.84 987.136 1782.1 986.128 1782.63 985.216C1783.16 984.288 1783.88 983.56 1784.79 983.032C1785.72 982.504 1786.73 982.24 1787.84 982.24C1788.94 982.24 1789.95 982.504 1790.86 983.032C1791.79 983.56 1792.52 984.288 1793.04 985.216C1793.57 986.128 1793.84 987.136 1793.84 988.24C1793.84 989.344 1793.57 990.36 1793.04 991.288C1792.52 992.2 1791.79 992.92 1790.86 993.448C1789.95 993.976 1788.94 994.24 1787.84 994.24ZM1787.84 991.96C1788.51 991.96 1789.12 991.8 1789.66 991.48C1790.22 991.16 1790.65 990.72 1790.96 990.16C1791.28 989.584 1791.44 988.944 1791.44 988.24C1791.44 987.536 1791.28 986.904 1790.96 986.344C1790.65 985.768 1790.22 985.32 1789.66 985C1789.12 984.68 1788.51 984.52 1787.84 984.52C1787.16 984.52 1786.55 984.68 1785.99 985C1785.44 985.32 1785.01 985.768 1784.69 986.344C1784.39 986.904 1784.24 987.536 1784.24 988.24C1784.24 988.944 1784.39 989.584 1784.69 990.16C1785.01 990.72 1785.44 991.16 1785.99 991.48C1786.55 991.8 1787.16 991.96 1787.84 991.96ZM1802.01 994V982.48H1804.41V983.992H1804.46C1804.76 983.544 1805.22 983.144 1805.82 982.792C1806.45 982.424 1807.14 982.24 1807.89 982.24H1808.49V984.76C1808.12 984.68 1807.8 984.64 1807.53 984.64C1806.97 984.64 1806.45 984.792 1805.97 985.096C1805.49 985.384 1805.1 985.8 1804.82 986.344C1804.54 986.872 1804.41 987.464 1804.41 988.12V994H1802.01ZM1815.7 994.24C1814.6 994.24 1813.58 993.976 1812.65 993.448C1811.74 992.92 1811.02 992.2 1810.49 991.288C1809.97 990.36 1809.7 989.344 1809.7 988.24C1809.7 987.136 1809.97 986.128 1810.49 985.216C1811.02 984.304 1811.73 983.584 1812.63 983.056C1813.53 982.512 1814.51 982.24 1815.58 982.24C1816.65 982.24 1817.61 982.488 1818.46 982.984C1819.33 983.464 1820 984.136 1820.48 985C1820.97 985.848 1821.22 986.808 1821.22 987.88C1821.22 988.312 1821.18 988.712 1821.1 989.08H1812.22C1812.35 989.88 1812.75 990.56 1813.42 991.12C1814.09 991.68 1814.89 991.96 1815.82 991.96C1816.99 991.96 1818.07 991.496 1819.06 990.568L1820.62 992.104C1820.17 992.664 1819.52 993.16 1818.65 993.592C1817.81 994.024 1816.82 994.24 1815.7 994.24ZM1818.73 987.16C1818.55 986.312 1818.19 985.64 1817.65 985.144C1817.1 984.648 1816.41 984.4 1815.58 984.4C1814.69 984.4 1813.95 984.648 1813.37 985.144C1812.81 985.64 1812.41 986.312 1812.17 987.16H1818.73ZM1828.17 982.24C1829.12 982.24 1829.95 982.432 1830.67 982.816C1831.41 983.2 1831.97 983.736 1832.37 984.424C1832.77 985.096 1832.97 985.848 1832.97 986.68V994H1830.69V992.368H1830.67C1830.37 992.848 1829.87 993.28 1829.18 993.664C1828.49 994.048 1827.73 994.24 1826.9 994.24C1826.15 994.24 1825.48 994.088 1824.89 993.784C1824.29 993.48 1823.83 993.072 1823.49 992.56C1823.17 992.032 1823.01 991.472 1823.01 990.88C1823.01 989.92 1823.33 989.12 1823.95 988.48C1824.59 987.84 1825.48 987.424 1826.61 987.232L1830.57 986.56V986.512C1830.57 985.92 1830.34 985.424 1829.88 985.024C1829.43 984.608 1828.86 984.4 1828.17 984.4C1827.55 984.4 1827 984.544 1826.52 984.832C1826.04 985.104 1825.58 985.472 1825.15 985.936L1823.61 984.448C1824.88 982.976 1826.4 982.24 1828.17 982.24ZM1827.33 992.2C1827.93 992.2 1828.47 992.056 1828.97 991.768C1829.46 991.464 1829.85 991.056 1830.14 990.544C1830.43 990.032 1830.57 989.464 1830.57 988.84V988.48L1827.21 989.08C1826.64 989.192 1826.19 989.392 1825.87 989.68C1825.57 989.952 1825.41 990.272 1825.41 990.64C1825.41 991.072 1825.59 991.44 1825.94 991.744C1826.29 992.048 1826.76 992.2 1827.33 992.2ZM1841.48 994.24C1840.38 994.24 1839.36 993.976 1838.44 993.448C1837.52 992.92 1836.8 992.2 1836.28 991.288C1835.75 990.36 1835.48 989.344 1835.48 988.24C1835.48 987.136 1835.75 986.128 1836.28 985.216C1836.8 984.288 1837.52 983.56 1838.44 983.032C1839.36 982.504 1840.38 982.24 1841.48 982.24C1842.57 982.24 1843.53 982.472 1844.36 982.936C1845.2 983.384 1845.86 983.92 1846.36 984.544L1844.63 986.008C1843.73 985.016 1842.68 984.52 1841.48 984.52C1840.81 984.52 1840.2 984.68 1839.64 985C1839.09 985.32 1838.66 985.768 1838.34 986.344C1838.04 986.904 1837.88 987.536 1837.88 988.24C1837.88 988.944 1838.04 989.584 1838.34 990.16C1838.66 990.72 1839.09 991.16 1839.64 991.48C1840.2 991.8 1840.81 991.96 1841.48 991.96C1842.17 991.96 1842.79 991.816 1843.33 991.528C1843.89 991.224 1844.36 990.848 1844.75 990.4L1846.48 991.864C1845.96 992.504 1845.28 993.064 1844.41 993.544C1843.55 994.008 1842.57 994.24 1841.48 994.24ZM1848.89 994V977.2H1851.29V984.112H1851.31C1851.61 983.632 1852.09 983.2 1852.73 982.816C1853.38 982.432 1854.1 982.24 1854.89 982.24C1855.77 982.24 1856.55 982.448 1857.24 982.864C1857.93 983.264 1858.46 983.848 1858.85 984.616C1859.25 985.368 1859.45 986.256 1859.45 987.28V994H1857.05V987.28C1857.05 986.448 1856.8 985.784 1856.3 985.288C1855.82 984.776 1855.19 984.52 1854.41 984.52C1853.49 984.52 1852.74 984.824 1852.15 985.432C1851.57 986.024 1851.29 986.8 1851.29 987.76V994H1848.89ZM1638.36 1015.12C1637.21 1015.12 1636.32 1014.79 1635.7 1014.14C1635.07 1013.48 1634.76 1012.53 1634.76 1011.28V1005.76H1632.6V1003.48H1633.92C1634.29 1003.48 1634.56 1003.38 1634.74 1003.17C1634.91 1002.96 1635 1002.62 1635 1002.16V999.64H1637.16V1003.48H1639.92V1005.76H1637.16V1011.04C1637.16 1011.63 1637.3 1012.08 1637.59 1012.38C1637.88 1012.69 1638.3 1012.84 1638.84 1012.84C1639.29 1012.84 1639.73 1012.72 1640.16 1012.48V1014.76C1639.97 1014.86 1639.7 1014.94 1639.37 1015C1639.05 1015.08 1638.71 1015.12 1638.36 1015.12ZM1642.92 1015V998.2H1645.32V1005.11H1645.34C1645.65 1004.63 1646.12 1004.2 1646.76 1003.82C1647.41 1003.43 1648.13 1003.24 1648.92 1003.24C1649.8 1003.24 1650.58 1003.45 1651.27 1003.86C1651.96 1004.26 1652.49 1004.85 1652.88 1005.62C1653.28 1006.37 1653.48 1007.26 1653.48 1008.28V1015H1651.08V1008.28C1651.08 1007.45 1650.83 1006.78 1650.33 1006.29C1649.85 1005.78 1649.22 1005.52 1648.44 1005.52C1647.53 1005.52 1646.77 1005.82 1646.18 1006.43C1645.61 1007.02 1645.32 1007.8 1645.32 1008.76V1015H1642.92ZM1662 1015.24C1660.9 1015.24 1659.88 1014.98 1658.95 1014.45C1658.04 1013.92 1657.32 1013.2 1656.79 1012.29C1656.26 1011.36 1656 1010.34 1656 1009.24C1656 1008.14 1656.26 1007.13 1656.79 1006.22C1657.32 1005.3 1658.03 1004.58 1658.93 1004.06C1659.82 1003.51 1660.81 1003.24 1661.88 1003.24C1662.95 1003.24 1663.91 1003.49 1664.76 1003.98C1665.62 1004.46 1666.3 1005.14 1666.78 1006C1667.27 1006.85 1667.52 1007.81 1667.52 1008.88C1667.52 1009.31 1667.48 1009.71 1667.4 1010.08H1658.52C1658.65 1010.88 1659.05 1011.56 1659.72 1012.12C1660.39 1012.68 1661.19 1012.96 1662.12 1012.96C1663.29 1012.96 1664.37 1012.5 1665.36 1011.57L1666.92 1013.1C1666.47 1013.66 1665.82 1014.16 1664.95 1014.59C1664.1 1015.02 1663.12 1015.24 1662 1015.24ZM1665.02 1008.16C1664.85 1007.31 1664.49 1006.64 1663.94 1006.14C1663.4 1005.65 1662.71 1005.4 1661.88 1005.4C1660.98 1005.4 1660.25 1005.65 1659.67 1006.14C1659.11 1006.64 1658.71 1007.31 1658.47 1008.16H1665.02ZM1682.04 1015.24C1681.15 1015.24 1680.34 1015.05 1679.62 1014.66C1678.91 1014.28 1678.41 1013.85 1678.11 1013.37H1678.08V1015H1675.68V998.2H1678.08V1005.11H1678.11C1678.41 1004.63 1678.91 1004.2 1679.62 1003.82C1680.34 1003.43 1681.15 1003.24 1682.04 1003.24C1683 1003.24 1683.89 1003.5 1684.71 1004.03C1685.54 1004.54 1686.2 1005.26 1686.7 1006.17C1687.19 1007.08 1687.44 1008.1 1687.44 1009.24C1687.44 1010.38 1687.19 1011.4 1686.7 1012.31C1686.2 1013.22 1685.54 1013.94 1684.71 1014.47C1683.89 1014.98 1683 1015.24 1682.04 1015.24ZM1681.56 1012.96C1682.2 1012.96 1682.79 1012.8 1683.31 1012.48C1683.84 1012.16 1684.26 1011.72 1684.56 1011.16C1684.88 1010.58 1685.04 1009.94 1685.04 1009.24C1685.04 1008.54 1684.88 1007.9 1684.56 1007.34C1684.26 1006.77 1683.84 1006.32 1683.31 1006C1682.79 1005.68 1682.2 1005.52 1681.56 1005.52C1680.92 1005.52 1680.34 1005.68 1679.81 1006C1679.28 1006.32 1678.86 1006.77 1678.54 1007.34C1678.23 1007.9 1678.08 1008.54 1678.08 1009.24C1678.08 1009.94 1678.23 1010.58 1678.54 1011.16C1678.86 1011.72 1679.28 1012.16 1679.81 1012.48C1680.34 1012.8 1680.92 1012.96 1681.56 1012.96ZM1695.37 1015.24C1694.27 1015.24 1693.25 1014.98 1692.33 1014.45C1691.41 1013.92 1690.69 1013.2 1690.17 1012.29C1689.64 1011.36 1689.37 1010.34 1689.37 1009.24C1689.37 1008.14 1689.64 1007.13 1690.17 1006.22C1690.69 1005.3 1691.41 1004.58 1692.3 1004.06C1693.2 1003.51 1694.18 1003.24 1695.25 1003.24C1696.33 1003.24 1697.29 1003.49 1698.13 1003.98C1699 1004.46 1699.67 1005.14 1700.15 1006C1700.65 1006.85 1700.89 1007.81 1700.89 1008.88C1700.89 1009.31 1700.85 1009.71 1700.77 1010.08H1691.89C1692.02 1010.88 1692.42 1011.56 1693.09 1012.12C1693.77 1012.68 1694.57 1012.96 1695.49 1012.96C1696.66 1012.96 1697.74 1012.5 1698.73 1011.57L1700.29 1013.1C1699.85 1013.66 1699.19 1014.16 1698.33 1014.59C1697.48 1015.02 1696.49 1015.24 1695.37 1015.24ZM1698.4 1008.16C1698.22 1007.31 1697.86 1006.64 1697.32 1006.14C1696.77 1005.65 1696.09 1005.4 1695.25 1005.4C1694.36 1005.4 1693.62 1005.65 1693.05 1006.14C1692.49 1006.64 1692.09 1007.31 1691.85 1008.16H1698.4ZM1707.13 1015.24C1706.13 1015.24 1705.23 1015.02 1704.41 1014.59C1703.6 1014.14 1702.98 1013.64 1702.57 1013.08L1704.13 1011.52C1704.46 1011.92 1704.9 1012.28 1705.45 1012.6C1705.99 1012.92 1706.56 1013.08 1707.15 1013.08C1707.79 1013.08 1708.29 1012.94 1708.64 1012.67C1708.99 1012.4 1709.17 1012.06 1709.17 1011.66C1709.17 1011.31 1708.98 1011.04 1708.61 1010.85C1708.26 1010.64 1707.7 1010.42 1706.93 1010.2C1706.13 1009.96 1705.47 1009.72 1704.94 1009.48C1704.43 1009.24 1703.98 1008.89 1703.6 1008.42C1703.23 1007.96 1703.05 1007.35 1703.05 1006.6C1703.05 1005.99 1703.21 1005.43 1703.55 1004.92C1703.89 1004.41 1704.37 1004 1705.01 1003.7C1705.65 1003.39 1706.4 1003.24 1707.25 1003.24C1708.16 1003.24 1708.97 1003.4 1709.67 1003.72C1710.39 1004.04 1710.94 1004.4 1711.33 1004.8L1709.77 1006.36C1709.49 1006.1 1709.13 1005.88 1708.69 1005.69C1708.24 1005.5 1707.76 1005.4 1707.25 1005.4C1706.69 1005.4 1706.25 1005.52 1705.93 1005.76C1705.61 1006 1705.45 1006.28 1705.45 1006.6C1705.45 1006.95 1705.61 1007.22 1705.95 1007.42C1706.3 1007.59 1706.87 1007.8 1707.65 1008.04C1708.47 1008.28 1709.13 1008.52 1709.65 1008.76C1710.17 1009 1710.62 1009.35 1710.99 1009.82C1711.37 1010.28 1711.57 1010.89 1711.57 1011.64C1711.57 1012.28 1711.38 1012.88 1711.01 1013.44C1710.66 1013.98 1710.15 1014.42 1709.48 1014.76C1708.81 1015.08 1708.02 1015.24 1707.13 1015.24ZM1718.89 1015.12C1717.74 1015.12 1716.85 1014.79 1716.23 1014.14C1715.6 1013.48 1715.29 1012.53 1715.29 1011.28V1005.76H1713.13V1003.48H1714.45C1714.82 1003.48 1715.09 1003.38 1715.27 1003.17C1715.44 1002.96 1715.53 1002.62 1715.53 1002.16V999.64H1717.69V1003.48H1720.45V1005.76H1717.69V1011.04C1717.69 1011.63 1717.84 1012.08 1718.12 1012.38C1718.41 1012.69 1718.83 1012.84 1719.37 1012.84C1719.82 1012.84 1720.26 1012.72 1720.69 1012.48V1014.76C1720.5 1014.86 1720.24 1014.94 1719.9 1015C1719.58 1015.08 1719.24 1015.12 1718.89 1015.12ZM1732.11 1015.24C1731.12 1015.24 1730.21 1015.02 1729.4 1014.59C1728.58 1014.14 1727.97 1013.64 1727.55 1013.08L1729.11 1011.52C1729.45 1011.92 1729.89 1012.28 1730.43 1012.6C1730.97 1012.92 1731.54 1013.08 1732.13 1013.08C1732.77 1013.08 1733.27 1012.94 1733.62 1012.67C1733.97 1012.4 1734.15 1012.06 1734.15 1011.66C1734.15 1011.31 1733.97 1011.04 1733.6 1010.85C1733.25 1010.64 1732.69 1010.42 1731.92 1010.2C1731.12 1009.96 1730.45 1009.72 1729.93 1009.48C1729.41 1009.24 1728.97 1008.89 1728.58 1008.42C1728.21 1007.96 1728.03 1007.35 1728.03 1006.6C1728.03 1005.99 1728.2 1005.43 1728.53 1004.92C1728.87 1004.41 1729.36 1004 1730 1003.7C1730.64 1003.39 1731.38 1003.24 1732.23 1003.24C1733.14 1003.24 1733.95 1003.4 1734.65 1003.72C1735.37 1004.04 1735.93 1004.4 1736.31 1004.8L1734.75 1006.36C1734.48 1006.1 1734.12 1005.88 1733.67 1005.69C1733.22 1005.5 1732.74 1005.4 1732.23 1005.4C1731.67 1005.4 1731.23 1005.52 1730.91 1005.76C1730.59 1006 1730.43 1006.28 1730.43 1006.6C1730.43 1006.95 1730.6 1007.22 1730.93 1007.42C1731.29 1007.59 1731.85 1007.8 1732.64 1008.04C1733.45 1008.28 1734.12 1008.52 1734.63 1008.76C1735.16 1009 1735.61 1009.35 1735.97 1009.82C1736.36 1010.28 1736.55 1010.89 1736.55 1011.64C1736.55 1012.28 1736.37 1012.88 1736 1013.44C1735.65 1013.98 1735.13 1014.42 1734.46 1014.76C1733.79 1015.08 1733.01 1015.24 1732.11 1015.24ZM1744.48 1015.24C1743.37 1015.24 1742.36 1014.98 1741.43 1014.45C1740.52 1013.92 1739.8 1013.2 1739.27 1012.29C1738.74 1011.36 1738.48 1010.34 1738.48 1009.24C1738.48 1008.14 1738.74 1007.13 1739.27 1006.22C1739.8 1005.29 1740.52 1004.56 1741.43 1004.03C1742.36 1003.5 1743.37 1003.24 1744.48 1003.24C1745.56 1003.24 1746.52 1003.47 1747.36 1003.94C1748.19 1004.38 1748.85 1004.92 1749.35 1005.54L1747.62 1007.01C1746.72 1006.02 1745.68 1005.52 1744.48 1005.52C1743.8 1005.52 1743.19 1005.68 1742.63 1006C1742.08 1006.32 1741.65 1006.77 1741.33 1007.34C1741.03 1007.9 1740.88 1008.54 1740.88 1009.24C1740.88 1009.94 1741.03 1010.58 1741.33 1011.16C1741.65 1011.72 1742.08 1012.16 1742.63 1012.48C1743.19 1012.8 1743.8 1012.96 1744.48 1012.96C1745.16 1012.96 1745.78 1012.82 1746.32 1012.53C1746.88 1012.22 1747.36 1011.85 1747.74 1011.4L1749.47 1012.86C1748.96 1013.5 1748.27 1014.06 1747.4 1014.54C1746.54 1015.01 1745.56 1015.24 1744.48 1015.24ZM1756.8 1015.24C1755.7 1015.24 1754.68 1014.98 1753.76 1014.45C1752.84 1013.92 1752.12 1013.2 1751.6 1012.29C1751.07 1011.36 1750.8 1010.34 1750.8 1009.24C1750.8 1008.14 1751.07 1007.13 1751.6 1006.22C1752.12 1005.29 1752.84 1004.56 1753.76 1004.03C1754.68 1003.5 1755.7 1003.24 1756.8 1003.24C1757.91 1003.24 1758.92 1003.5 1759.83 1004.03C1760.76 1004.56 1761.48 1005.29 1762.01 1006.22C1762.54 1007.13 1762.8 1008.14 1762.8 1009.24C1762.8 1010.34 1762.54 1011.36 1762.01 1012.29C1761.48 1013.2 1760.76 1013.92 1759.83 1014.45C1758.92 1014.98 1757.91 1015.24 1756.8 1015.24ZM1756.8 1012.96C1757.48 1012.96 1758.08 1012.8 1758.63 1012.48C1759.19 1012.16 1759.62 1011.72 1759.92 1011.16C1760.24 1010.58 1760.4 1009.94 1760.4 1009.24C1760.4 1008.54 1760.24 1007.9 1759.92 1007.34C1759.62 1006.77 1759.19 1006.32 1758.63 1006C1758.08 1005.68 1757.48 1005.52 1756.8 1005.52C1756.13 1005.52 1755.52 1005.68 1754.96 1006C1754.41 1006.32 1753.98 1006.77 1753.66 1007.34C1753.36 1007.9 1753.2 1008.54 1753.2 1009.24C1753.2 1009.94 1753.36 1010.58 1753.66 1011.16C1753.98 1011.72 1754.41 1012.16 1754.96 1012.48C1755.52 1012.8 1756.13 1012.96 1756.8 1012.96ZM1765.45 1015V1003.48H1767.85V1004.99H1767.89C1768.2 1004.54 1768.65 1004.14 1769.26 1003.79C1769.89 1003.42 1770.57 1003.24 1771.33 1003.24H1771.93V1005.76C1771.56 1005.68 1771.24 1005.64 1770.97 1005.64C1770.41 1005.64 1769.89 1005.79 1769.41 1006.1C1768.93 1006.38 1768.54 1006.8 1768.25 1007.34C1767.98 1007.87 1767.85 1008.46 1767.85 1009.12V1015H1765.45ZM1779.14 1015.24C1778.04 1015.24 1777.02 1014.98 1776.09 1014.45C1775.18 1013.92 1774.46 1013.2 1773.93 1012.29C1773.4 1011.36 1773.14 1010.34 1773.14 1009.24C1773.14 1008.14 1773.4 1007.13 1773.93 1006.22C1774.46 1005.3 1775.17 1004.58 1776.07 1004.06C1776.96 1003.51 1777.95 1003.24 1779.02 1003.24C1780.09 1003.24 1781.05 1003.49 1781.9 1003.98C1782.76 1004.46 1783.44 1005.14 1783.92 1006C1784.41 1006.85 1784.66 1007.81 1784.66 1008.88C1784.66 1009.31 1784.62 1009.71 1784.54 1010.08H1775.66C1775.79 1010.88 1776.19 1011.56 1776.86 1012.12C1777.53 1012.68 1778.33 1012.96 1779.26 1012.96C1780.43 1012.96 1781.51 1012.5 1782.5 1011.57L1784.06 1013.1C1783.61 1013.66 1782.96 1014.16 1782.09 1014.59C1781.24 1015.02 1780.26 1015.24 1779.14 1015.24ZM1782.16 1008.16C1781.99 1007.31 1781.63 1006.64 1781.08 1006.14C1780.54 1005.65 1779.85 1005.4 1779.02 1005.4C1778.12 1005.4 1777.39 1005.65 1776.81 1006.14C1776.25 1006.64 1775.85 1007.31 1775.61 1008.16H1782.16Z" fill="#E6E6E6"/>
<path d="M852.2 1002.24C850.552 1002.24 849.048 1001.86 847.688 1001.09C846.328 1000.32 845.256 999.28 844.472 997.968C843.704 996.64 843.32 995.184 843.32 993.6C843.32 992.016 843.704 990.568 844.472 989.256C845.256 987.928 846.328 986.88 847.688 986.112C849.048 985.344 850.552 984.96 852.2 984.96C853.72 984.96 855.064 985.28 856.232 985.92C857.416 986.56 858.352 987.312 859.04 988.176L857.192 989.688C856.6 989.016 855.904 988.464 855.104 988.032C854.32 987.584 853.352 987.36 852.2 987.36C851.064 987.36 850.016 987.64 849.056 988.2C848.096 988.744 847.336 989.496 846.776 990.456C846.232 991.416 845.96 992.464 845.96 993.6C845.96 994.736 846.232 995.784 846.776 996.744C847.336 997.704 848.096 998.464 849.056 999.024C850.016 999.568 851.064 999.84 852.2 999.84C853.368 999.84 854.352 999.616 855.152 999.168C855.968 998.72 856.688 998.144 857.312 997.44L859.16 998.952C858.44 999.848 857.48 1000.62 856.28 1001.28C855.08 1001.92 853.72 1002.24 852.2 1002.24ZM862.72 1002H860.008L866.728 985.2H869.608L876.328 1002H873.52L871.84 997.68H864.4L862.72 1002ZM868.096 988.248L865.36 995.28H870.88L868.144 988.248H868.096ZM885.098 1002H882.218L875.738 985.2H878.546L883.658 998.832H883.706L888.866 985.2H891.578L885.098 1002ZM906.583 1002H894.463V985.2H906.343V987.6H897.103V992.088H904.423V994.488H897.103V999.6H906.583V1002ZM919.44 990.24C920.384 990.24 921.216 990.432 921.936 990.816C922.672 991.2 923.24 991.736 923.64 992.424C924.04 993.096 924.24 993.848 924.24 994.68V1002H921.96V1000.37H921.936C921.632 1000.85 921.136 1001.28 920.448 1001.66C919.76 1002.05 919 1002.24 918.168 1002.24C917.416 1002.24 916.744 1002.09 916.152 1001.78C915.56 1001.48 915.096 1001.07 914.76 1000.56C914.44 1000.03 914.28 999.472 914.28 998.88C914.28 997.92 914.592 997.12 915.216 996.48C915.856 995.84 916.744 995.424 917.88 995.232L921.84 994.56V994.512C921.84 993.92 921.608 993.424 921.144 993.024C920.696 992.608 920.128 992.4 919.44 992.4C918.816 992.4 918.264 992.544 917.784 992.832C917.304 993.104 916.848 993.472 916.416 993.936L914.88 992.448C916.144 990.976 917.664 990.24 919.44 990.24ZM918.6 1000.2C919.192 1000.2 919.736 1000.06 920.232 999.768C920.728 999.464 921.12 999.056 921.408 998.544C921.696 998.032 921.84 997.464 921.84 996.84V996.48L918.48 997.08C917.904 997.192 917.456 997.392 917.136 997.68C916.832 997.952 916.68 998.272 916.68 998.64C916.68 999.072 916.856 999.44 917.208 999.744C917.56 1000.05 918.024 1000.2 918.6 1000.2ZM927.469 1002V990.48H929.869V991.992H929.917C930.221 991.544 930.677 991.144 931.285 990.792C931.909 990.424 932.597 990.24 933.349 990.24H933.949V992.76C933.581 992.68 933.261 992.64 932.989 992.64C932.429 992.64 931.909 992.792 931.429 993.096C930.949 993.384 930.565 993.8 930.277 994.344C930.005 994.872 929.869 995.464 929.869 996.12V1002H927.469ZM941.163 1002.24C940.059 1002.24 939.043 1001.98 938.115 1001.45C937.203 1000.92 936.483 1000.2 935.955 999.288C935.427 998.36 935.163 997.344 935.163 996.24C935.163 995.136 935.427 994.128 935.955 993.216C936.483 992.288 937.203 991.56 938.115 991.032C939.043 990.504 940.059 990.24 941.163 990.24C942.251 990.24 943.211 990.472 944.043 990.936C944.875 991.384 945.539 991.92 946.035 992.544L944.307 994.008C943.411 993.016 942.363 992.52 941.163 992.52C940.491 992.52 939.875 992.68 939.315 993C938.771 993.32 938.339 993.768 938.019 994.344C937.715 994.904 937.563 995.536 937.563 996.24C937.563 996.944 937.715 997.584 938.019 998.16C938.339 998.72 938.771 999.16 939.315 999.48C939.875 999.8 940.491 999.96 941.163 999.96C941.851 999.96 942.467 999.816 943.011 999.528C943.571 999.224 944.043 998.848 944.427 998.4L946.155 999.864C945.643 1000.5 944.955 1001.06 944.091 1001.54C943.227 1002.01 942.251 1002.24 941.163 1002.24ZM948.566 1002V985.2H950.966V992.112H950.99C951.294 991.632 951.766 991.2 952.406 990.816C953.062 990.432 953.782 990.24 954.566 990.24C955.446 990.24 956.23 990.448 956.918 990.864C957.606 991.264 958.142 991.848 958.526 992.616C958.926 993.368 959.126 994.256 959.126 995.28V1002H956.726V995.28C956.726 994.448 956.478 993.784 955.982 993.288C955.502 992.776 954.87 992.52 954.086 992.52C953.174 992.52 952.422 992.824 951.83 993.432C951.254 994.024 950.966 994.8 950.966 995.76V1002H948.566ZM964.888 1002H962.488V990.48H964.888V1002ZM963.688 988.32C963.32 988.32 962.984 988.184 962.68 987.912C962.392 987.624 962.248 987.28 962.248 986.88C962.248 986.48 962.392 986.144 962.68 985.872C962.984 985.584 963.32 985.44 963.688 985.44C964.056 985.44 964.384 985.584 964.672 985.872C964.976 986.144 965.128 986.48 965.128 986.88C965.128 987.28 964.976 987.624 964.672 987.912C964.384 988.184 964.056 988.32 963.688 988.32ZM973.048 1002.12C971.896 1002.12 971.008 1001.79 970.384 1001.14C969.76 1000.48 969.448 999.528 969.448 998.28V992.76H967.288V990.48H968.608C968.976 990.48 969.248 990.376 969.424 990.168C969.6 989.96 969.688 989.624 969.688 989.16V986.64H971.848V990.48H974.608V992.76H971.848V998.04C971.848 998.632 971.992 999.08 972.28 999.384C972.568 999.688 972.984 999.84 973.528 999.84C973.976 999.84 974.416 999.72 974.848 999.48V1001.76C974.656 1001.86 974.392 1001.94 974.056 1002C973.736 1002.08 973.4 1002.12 973.048 1002.12ZM982.53 1002.24C981.426 1002.24 980.41 1001.98 979.482 1001.45C978.57 1000.92 977.85 1000.2 977.322 999.288C976.794 998.36 976.53 997.344 976.53 996.24C976.53 995.136 976.794 994.128 977.322 993.216C977.85 992.304 978.562 991.584 979.458 991.056C980.354 990.512 981.338 990.24 982.41 990.24C983.482 990.24 984.442 990.488 985.29 990.984C986.154 991.464 986.826 992.136 987.306 993C987.802 993.848 988.05 994.808 988.05 995.88C988.05 996.312 988.01 996.712 987.93 997.08H979.05C979.178 997.88 979.578 998.56 980.25 999.12C980.922 999.68 981.722 999.96 982.65 999.96C983.818 999.96 984.898 999.496 985.89 998.568L987.45 1000.1C987.002 1000.66 986.346 1001.16 985.482 1001.59C984.634 1002.02 983.65 1002.24 982.53 1002.24ZM985.554 995.16C985.378 994.312 985.018 993.64 984.474 993.144C983.93 992.648 983.242 992.4 982.41 992.4C981.514 992.4 980.778 992.648 980.202 993.144C979.642 993.64 979.242 994.312 979.002 995.16H985.554ZM995.843 1002.24C994.739 1002.24 993.723 1001.98 992.795 1001.45C991.883 1000.92 991.163 1000.2 990.635 999.288C990.107 998.36 989.843 997.344 989.843 996.24C989.843 995.136 990.107 994.128 990.635 993.216C991.163 992.288 991.883 991.56 992.795 991.032C993.723 990.504 994.739 990.24 995.843 990.24C996.931 990.24 997.891 990.472 998.723 990.936C999.555 991.384 1000.22 991.92 1000.71 992.544L998.987 994.008C998.091 993.016 997.043 992.52 995.843 992.52C995.171 992.52 994.555 992.68 993.995 993C993.451 993.32 993.019 993.768 992.699 994.344C992.395 994.904 992.243 995.536 992.243 996.24C992.243 996.944 992.395 997.584 992.699 998.16C993.019 998.72 993.451 999.16 993.995 999.48C994.555 999.8 995.171 999.96 995.843 999.96C996.531 999.96 997.147 999.816 997.691 999.528C998.251 999.224 998.723 998.848 999.107 998.4L1000.83 999.864C1000.32 1000.5 999.635 1001.06 998.771 1001.54C997.907 1002.01 996.931 1002.24 995.843 1002.24ZM1007.81 1002.12C1006.65 1002.12 1005.77 1001.79 1005.14 1001.14C1004.52 1000.48 1004.21 999.528 1004.21 998.28V992.76H1002.05V990.48H1003.37C1003.73 990.48 1004.01 990.376 1004.18 990.168C1004.36 989.96 1004.45 989.624 1004.45 989.16V986.64H1006.61V990.48H1009.37V992.76H1006.61V998.04C1006.61 998.632 1006.75 999.08 1007.04 999.384C1007.33 999.688 1007.74 999.84 1008.29 999.84C1008.73 999.84 1009.17 999.72 1009.61 999.48V1001.76C1009.41 1001.86 1009.15 1001.94 1008.81 1002C1008.49 1002.08 1008.16 1002.12 1007.81 1002.12ZM1016.45 1002.24C1015.57 1002.24 1014.78 1002.04 1014.1 1001.64C1013.41 1001.22 1012.86 1000.64 1012.46 999.888C1012.08 999.12 1011.89 998.224 1011.89 997.2V990.48H1014.29V997.2C1014.29 998.032 1014.53 998.704 1015.01 999.216C1015.5 999.712 1016.14 999.96 1016.93 999.96C1017.84 999.96 1018.58 999.664 1019.16 999.072C1019.75 998.464 1020.05 997.68 1020.05 996.72V990.48H1022.45V1002H1020.05V1000.37H1020.02C1019.72 1000.85 1019.24 1001.28 1018.58 1001.66C1017.94 1002.05 1017.23 1002.24 1016.45 1002.24ZM1025.81 1002V990.48H1028.21V991.992H1028.26C1028.56 991.544 1029.02 991.144 1029.63 990.792C1030.25 990.424 1030.94 990.24 1031.69 990.24H1032.29V992.76C1031.92 992.68 1031.6 992.64 1031.33 992.64C1030.77 992.64 1030.25 992.792 1029.77 993.096C1029.29 993.384 1028.91 993.8 1028.62 994.344C1028.35 994.872 1028.21 995.464 1028.21 996.12V1002H1025.81ZM1039.51 1002.24C1038.4 1002.24 1037.39 1001.98 1036.46 1001.45C1035.55 1000.92 1034.83 1000.2 1034.3 999.288C1033.77 998.36 1033.51 997.344 1033.51 996.24C1033.51 995.136 1033.77 994.128 1034.3 993.216C1034.83 992.304 1035.54 991.584 1036.43 991.056C1037.33 990.512 1038.31 990.24 1039.39 990.24C1040.46 990.24 1041.42 990.488 1042.27 990.984C1043.13 991.464 1043.8 992.136 1044.28 993C1044.78 993.848 1045.03 994.808 1045.03 995.88C1045.03 996.312 1044.99 996.712 1044.91 997.08H1036.03C1036.15 997.88 1036.55 998.56 1037.23 999.12C1037.9 999.68 1038.7 999.96 1039.63 999.96C1040.79 999.96 1041.87 999.496 1042.87 998.568L1044.43 1000.1C1043.98 1000.66 1043.32 1001.16 1042.46 1001.59C1041.61 1002.02 1040.63 1002.24 1039.51 1002.24ZM1042.53 995.16C1042.35 994.312 1041.99 993.64 1041.45 993.144C1040.91 992.648 1040.22 992.4 1039.39 992.4C1038.49 992.4 1037.75 992.648 1037.18 993.144C1036.62 993.64 1036.22 994.312 1035.98 995.16H1042.53Z" fill="#E6E6E6"/>
<path d="M52.44 998H49.8L45.24 986.48H47.832L51.144 995.192H51.192L54.504 986.48H57L52.44 998ZM64.1944 998.24C63.0904 998.24 62.0744 997.976 61.1464 997.448C60.2344 996.92 59.5144 996.2 58.9864 995.288C58.4584 994.36 58.1944 993.344 58.1944 992.24C58.1944 991.136 58.4584 990.128 58.9864 989.216C59.5144 988.304 60.2264 987.584 61.1224 987.056C62.0184 986.512 63.0024 986.24 64.0744 986.24C65.1464 986.24 66.1064 986.488 66.9544 986.984C67.8184 987.464 68.4904 988.136 68.9704 989C69.4664 989.848 69.7144 990.808 69.7144 991.88C69.7144 992.312 69.6744 992.712 69.5944 993.08H60.7144C60.8424 993.88 61.2424 994.56 61.9144 995.12C62.5864 995.68 63.3864 995.96 64.3144 995.96C65.4824 995.96 66.5624 995.496 67.5544 994.568L69.1144 996.104C68.6664 996.664 68.0104 997.16 67.1464 997.592C66.2984 998.024 65.3144 998.24 64.1944 998.24ZM67.2184 991.16C67.0424 990.312 66.6824 989.64 66.1384 989.144C65.5944 988.648 64.9064 988.4 64.0744 988.4C63.1784 988.4 62.4424 988.648 61.8664 989.144C61.3064 989.64 60.9064 990.312 60.6664 991.16H67.2184ZM76.9069 998.24C75.9469 998.24 75.0509 997.984 74.2189 997.472C73.4029 996.944 72.7469 996.224 72.2509 995.312C71.7549 994.4 71.5069 993.376 71.5069 992.24C71.5069 991.104 71.7549 990.08 72.2509 989.168C72.7469 988.256 73.4029 987.544 74.2189 987.032C75.0509 986.504 75.9469 986.24 76.9069 986.24C77.8029 986.24 78.6029 986.432 79.3069 986.816C80.0269 987.2 80.5389 987.632 80.8429 988.112H80.8669V981.2H83.2669V998H80.8669V996.368H80.8429C80.5389 996.848 80.0269 997.28 79.3069 997.664C78.6029 998.048 77.8029 998.24 76.9069 998.24ZM77.3869 995.96C78.0269 995.96 78.6109 995.8 79.1389 995.48C79.6669 995.16 80.0829 994.72 80.3869 994.16C80.7069 993.584 80.8669 992.944 80.8669 992.24C80.8669 991.536 80.7069 990.904 80.3869 990.344C80.0829 989.768 79.6669 989.32 79.1389 989C78.6109 988.68 78.0269 988.52 77.3869 988.52C76.7469 988.52 76.1629 988.68 75.6349 989C75.1069 989.32 74.6829 989.768 74.3629 990.344C74.0589 990.904 73.9069 991.536 73.9069 992.24C73.9069 992.944 74.0589 993.584 74.3629 994.16C74.6829 994.72 75.1069 995.16 75.6349 995.48C76.1629 995.8 76.7469 995.96 77.3869 995.96ZM92.0381 998.24C90.9341 998.24 89.9181 997.976 88.9901 997.448C88.0781 996.92 87.3581 996.2 86.8301 995.288C86.3021 994.36 86.0381 993.344 86.0381 992.24C86.0381 991.136 86.3021 990.128 86.8301 989.216C87.3581 988.304 88.0701 987.584 88.9661 987.056C89.8621 986.512 90.8461 986.24 91.9181 986.24C92.9901 986.24 93.9501 986.488 94.7981 986.984C95.6621 987.464 96.3341 988.136 96.8141 989C97.3101 989.848 97.5581 990.808 97.5581 991.88C97.5581 992.312 97.5181 992.712 97.4381 993.08H88.5581C88.6861 993.88 89.0861 994.56 89.7581 995.12C90.4301 995.68 91.2301 995.96 92.1581 995.96C93.3261 995.96 94.4061 995.496 95.3981 994.568L96.9581 996.104C96.5101 996.664 95.8541 997.16 94.9901 997.592C94.1421 998.024 93.1581 998.24 92.0381 998.24ZM95.0621 991.16C94.8861 990.312 94.5261 989.64 93.9821 989.144C93.4381 988.648 92.7501 988.4 91.9181 988.4C91.0221 988.4 90.2861 988.648 89.7101 989.144C89.1501 989.64 88.7501 990.312 88.5101 991.16H95.0621ZM100.071 998V986.48H102.471V988.112H102.495C102.799 987.632 103.271 987.2 103.911 986.816C104.567 986.432 105.287 986.24 106.071 986.24C106.951 986.24 107.735 986.448 108.423 986.864C109.111 987.264 109.647 987.848 110.031 988.616C110.431 989.368 110.631 990.256 110.631 991.28V998H108.231V991.28C108.231 990.448 107.983 989.784 107.487 989.288C107.007 988.776 106.375 988.52 105.591 988.52C104.679 988.52 103.927 988.824 103.335 989.432C102.759 990.024 102.471 990.8 102.471 991.76V998H100.071ZM116.395 998H113.995V986.48H116.395V998ZM115.195 984.32C114.827 984.32 114.491 984.184 114.187 983.912C113.899 983.624 113.755 983.28 113.755 982.88C113.755 982.48 113.899 982.144 114.187 981.872C114.491 981.584 114.827 981.44 115.195 981.44C115.563 981.44 115.891 981.584 116.179 981.872C116.483 982.144 116.635 982.48 116.635 982.88C116.635 983.28 116.483 983.624 116.179 983.912C115.891 984.184 115.563 984.32 115.195 984.32ZM124.315 986.24C125.259 986.24 126.091 986.432 126.811 986.816C127.547 987.2 128.115 987.736 128.515 988.424C128.915 989.096 129.115 989.848 129.115 990.68V998H126.835V996.368H126.811C126.507 996.848 126.011 997.28 125.323 997.664C124.635 998.048 123.875 998.24 123.043 998.24C122.291 998.24 121.619 998.088 121.027 997.784C120.435 997.48 119.971 997.072 119.635 996.56C119.315 996.032 119.155 995.472 119.155 994.88C119.155 993.92 119.467 993.12 120.091 992.48C120.731 991.84 121.619 991.424 122.755 991.232L126.715 990.56V990.512C126.715 989.92 126.483 989.424 126.019 989.024C125.571 988.608 125.003 988.4 124.315 988.4C123.691 988.4 123.139 988.544 122.659 988.832C122.179 989.104 121.723 989.472 121.291 989.936L119.755 988.448C121.019 986.976 122.539 986.24 124.315 986.24ZM123.475 996.2C124.067 996.2 124.611 996.056 125.107 995.768C125.603 995.464 125.995 995.056 126.283 994.544C126.571 994.032 126.715 993.464 126.715 992.84V992.48L123.355 993.08C122.779 993.192 122.331 993.392 122.011 993.68C121.707 993.952 121.555 994.272 121.555 994.64C121.555 995.072 121.731 995.44 122.083 995.744C122.435 996.048 122.899 996.2 123.475 996.2ZM132.344 1003.04V986.48H134.744V988.112H134.768C135.072 987.632 135.576 987.2 136.28 986.816C137 986.432 137.808 986.24 138.704 986.24C139.664 986.24 140.552 986.504 141.368 987.032C142.2 987.544 142.864 988.256 143.36 989.168C143.856 990.08 144.104 991.104 144.104 992.24C144.104 993.376 143.856 994.4 143.36 995.312C142.864 996.224 142.2 996.944 141.368 997.472C140.552 997.984 139.664 998.24 138.704 998.24C137.808 998.24 137 998.048 136.28 997.664C135.576 997.28 135.072 996.848 134.768 996.368H134.744V1003.04H132.344ZM138.224 995.96C138.864 995.96 139.448 995.8 139.976 995.48C140.504 995.16 140.92 994.72 141.224 994.16C141.544 993.584 141.704 992.944 141.704 992.24C141.704 991.536 141.544 990.904 141.224 990.344C140.92 989.768 140.504 989.32 139.976 989C139.448 988.68 138.864 988.52 138.224 988.52C137.584 988.52 137 988.68 136.472 989C135.944 989.32 135.52 989.768 135.2 990.344C134.896 990.904 134.744 991.536 134.744 992.24C134.744 992.944 134.896 993.584 135.2 994.16C135.52 994.72 135.944 995.16 136.472 995.48C137 995.8 137.584 995.96 138.224 995.96ZM149.255 998H146.855V986.48H149.255V998ZM148.055 984.32C147.687 984.32 147.351 984.184 147.047 983.912C146.759 983.624 146.615 983.28 146.615 982.88C146.615 982.48 146.759 982.144 147.047 981.872C147.351 981.584 147.687 981.44 148.055 981.44C148.423 981.44 148.751 981.584 149.039 981.872C149.343 982.144 149.495 982.48 149.495 982.88C149.495 983.28 149.343 983.624 149.039 983.912C148.751 984.184 148.423 984.32 148.055 984.32ZM152.735 998V986.48H155.135V988.112H155.159C155.463 987.632 155.935 987.2 156.575 986.816C157.231 986.432 157.951 986.24 158.735 986.24C159.615 986.24 160.399 986.448 161.087 986.864C161.775 987.264 162.311 987.848 162.695 988.616C163.095 989.368 163.295 990.256 163.295 991.28V998H160.895V991.28C160.895 990.448 160.647 989.784 160.151 989.288C159.671 988.776 159.039 988.52 158.255 988.52C157.343 988.52 156.591 988.824 155.999 989.432C155.423 990.024 155.135 990.8 155.135 991.76V998H152.735ZM170.979 986.24C171.923 986.24 172.755 986.432 173.475 986.816C174.211 987.2 174.779 987.736 175.179 988.424C175.579 989.096 175.779 989.848 175.779 990.68V998H173.499V996.368H173.475C173.171 996.848 172.675 997.28 171.987 997.664C171.299 998.048 170.539 998.24 169.707 998.24C168.955 998.24 168.283 998.088 167.691 997.784C167.099 997.48 166.635 997.072 166.299 996.56C165.979 996.032 165.819 995.472 165.819 994.88C165.819 993.92 166.131 993.12 166.755 992.48C167.395 991.84 168.283 991.424 169.419 991.232L173.379 990.56V990.512C173.379 989.92 173.147 989.424 172.683 989.024C172.235 988.608 171.667 988.4 170.979 988.4C170.355 988.4 169.803 988.544 169.323 988.832C168.843 989.104 168.387 989.472 167.955 989.936L166.419 988.448C167.683 986.976 169.203 986.24 170.979 986.24ZM170.139 996.2C170.731 996.2 171.275 996.056 171.771 995.768C172.267 995.464 172.659 995.056 172.947 994.544C173.235 994.032 173.379 993.464 173.379 992.84V992.48L170.019 993.08C169.443 993.192 168.995 993.392 168.675 993.68C168.371 993.952 168.219 994.272 168.219 994.64C168.219 995.072 168.395 995.44 168.747 995.744C169.099 996.048 169.563 996.2 170.139 996.2ZM184.539 998V986.48H186.939V988.112H186.963C187.267 987.632 187.739 987.2 188.379 986.816C189.035 986.432 189.755 986.24 190.539 986.24C191.419 986.24 192.203 986.448 192.891 986.864C193.579 987.264 194.115 987.848 194.499 988.616C194.899 989.368 195.099 990.256 195.099 991.28V998H192.699V991.28C192.699 990.448 192.451 989.784 191.955 989.288C191.475 988.776 190.843 988.52 190.059 988.52C189.147 988.52 188.395 988.824 187.803 989.432C187.227 990.024 186.939 990.8 186.939 991.76V998H184.539ZM202.784 986.24C203.728 986.24 204.56 986.432 205.28 986.816C206.016 987.2 206.584 987.736 206.984 988.424C207.384 989.096 207.584 989.848 207.584 990.68V998H205.304V996.368H205.28C204.976 996.848 204.48 997.28 203.792 997.664C203.104 998.048 202.344 998.24 201.512 998.24C200.76 998.24 200.088 998.088 199.496 997.784C198.904 997.48 198.44 997.072 198.104 996.56C197.784 996.032 197.624 995.472 197.624 994.88C197.624 993.92 197.936 993.12 198.56 992.48C199.2 991.84 200.088 991.424 201.224 991.232L205.184 990.56V990.512C205.184 989.92 204.952 989.424 204.488 989.024C204.04 988.608 203.472 988.4 202.784 988.4C202.16 988.4 201.608 988.544 201.128 988.832C200.648 989.104 200.192 989.472 199.76 989.936L198.224 988.448C199.488 986.976 201.008 986.24 202.784 986.24ZM201.944 996.2C202.536 996.2 203.08 996.056 203.576 995.768C204.072 995.464 204.464 995.056 204.752 994.544C205.04 994.032 205.184 993.464 205.184 992.84V992.48L201.824 993.08C201.248 993.192 200.8 993.392 200.48 993.68C200.176 993.952 200.024 994.272 200.024 994.64C200.024 995.072 200.2 995.44 200.552 995.744C200.904 996.048 201.368 996.2 201.944 996.2ZM214.533 998.24C213.541 998.24 212.637 998.024 211.821 997.592C211.005 997.144 210.389 996.64 209.973 996.08L211.533 994.52C211.869 994.92 212.309 995.28 212.853 995.6C213.397 995.92 213.965 996.08 214.557 996.08C215.197 996.08 215.693 995.944 216.045 995.672C216.397 995.4 216.573 995.064 216.573 994.664C216.573 994.312 216.389 994.04 216.021 993.848C215.669 993.64 215.109 993.424 214.341 993.2C213.541 992.96 212.877 992.72 212.349 992.48C211.837 992.24 211.389 991.888 211.005 991.424C210.637 990.96 210.453 990.352 210.453 989.6C210.453 988.992 210.621 988.432 210.957 987.92C211.293 987.408 211.781 987 212.421 986.696C213.061 986.392 213.805 986.24 214.653 986.24C215.565 986.24 216.373 986.4 217.077 986.72C217.797 987.04 218.349 987.4 218.733 987.8L217.173 989.36C216.901 989.104 216.541 988.88 216.093 988.688C215.645 988.496 215.165 988.4 214.653 988.4C214.093 988.4 213.653 988.52 213.333 988.76C213.013 989 212.853 989.28 212.853 989.6C212.853 989.952 213.021 990.224 213.357 990.416C213.709 990.592 214.277 990.8 215.061 991.04C215.877 991.28 216.541 991.52 217.053 991.76C217.581 992 218.029 992.352 218.397 992.816C218.781 993.28 218.973 993.888 218.973 994.64C218.973 995.28 218.789 995.88 218.421 996.44C218.069 996.984 217.557 997.424 216.885 997.76C216.213 998.08 215.429 998.24 214.533 998.24ZM226.298 998.12C225.146 998.12 224.258 997.792 223.634 997.136C223.01 996.48 222.698 995.528 222.698 994.28V988.76H220.538V986.48H221.858C222.226 986.48 222.498 986.376 222.674 986.168C222.85 985.96 222.938 985.624 222.938 985.16V982.64H225.098V986.48H227.858V988.76H225.098V994.04C225.098 994.632 225.242 995.08 225.53 995.384C225.818 995.688 226.234 995.84 226.778 995.84C227.226 995.84 227.666 995.72 228.098 995.48V997.76C227.906 997.856 227.642 997.936 227.306 998C226.986 998.08 226.65 998.12 226.298 998.12ZM233.255 998H230.855V986.48H233.255V998ZM232.055 984.32C231.687 984.32 231.351 984.184 231.047 983.912C230.759 983.624 230.615 983.28 230.615 982.88C230.615 982.48 230.759 982.144 231.047 981.872C231.351 981.584 231.687 981.44 232.055 981.44C232.423 981.44 232.751 981.584 233.039 981.872C233.343 982.144 233.495 982.48 233.495 982.88C233.495 983.28 233.343 983.624 233.039 983.912C232.751 984.184 232.423 984.32 232.055 984.32ZM241.175 986.24C242.119 986.24 242.951 986.432 243.671 986.816C244.407 987.2 244.975 987.736 245.375 988.424C245.775 989.096 245.975 989.848 245.975 990.68V998H243.695V996.368H243.671C243.367 996.848 242.871 997.28 242.183 997.664C241.495 998.048 240.735 998.24 239.903 998.24C239.151 998.24 238.479 998.088 237.887 997.784C237.295 997.48 236.831 997.072 236.495 996.56C236.175 996.032 236.015 995.472 236.015 994.88C236.015 993.92 236.327 993.12 236.951 992.48C237.591 991.84 238.479 991.424 239.615 991.232L243.575 990.56V990.512C243.575 989.92 243.343 989.424 242.879 989.024C242.431 988.608 241.863 988.4 241.175 988.4C240.551 988.4 239.999 988.544 239.519 988.832C239.039 989.104 238.583 989.472 238.151 989.936L236.615 988.448C237.879 986.976 239.399 986.24 241.175 986.24ZM240.335 996.2C240.927 996.2 241.471 996.056 241.967 995.768C242.463 995.464 242.855 995.056 243.143 994.544C243.431 994.032 243.575 993.464 243.575 992.84V992.48L240.215 993.08C239.639 993.192 239.191 993.392 238.871 993.68C238.567 993.952 238.415 994.272 238.415 994.64C238.415 995.072 238.591 995.44 238.943 995.744C239.295 996.048 239.759 996.2 240.335 996.2Z" fill="#E6E6E6"/>
<path d="M366 610V304H715V610H637.489V442.438H577.069V610H507.508V442.438H443.511V610H366Z" fill="#1C4F2A"/>
<path d="M715 915V610H507.508V832.371H366V915H715Z" fill="#1C4F2A"/>
<path d="M715 304C657.252 304 636.874 304 540.5 304C444.126 304 436.93 304 366 304C366 136.105 444.126 0 540.5 0C636.874 0 715 136.105 715 304Z" fill="#1C4F2A"/>
<path d="M781 611V305H1131V611H1053.27H994.525V443.438H858.733V611H781Z" fill="#1C4F2A"/>
<path d="M781 305L875.185 1L956.599 305L1042.4 1L1131 305H956.599H781Z" fill="#1C4F2A"/>
<rect x="781.609" y="854.615" width="349.308" height="60.4725" fill="#1C4F2A"/>
<rect x="781.609" y="712.186" width="349.308" height="60.4725" fill="#1C4F2A"/>
<rect x="842.082" y="641.37" width="273.718" height="60.4725" transform="rotate(90 842.082 641.37)" fill="#1C4F2A"/>
<rect x="1130.92" y="641.37" width="273.718" height="60.4725" transform="rotate(90 1130.92 641.37)" fill="#1C4F2A"/>
<rect x="781.609" y="610.337" width="349.308" height="60.4725" fill="#1C4F2A"/>
<path d="M1197 306L1408.67 1H1547V306H1469.27H1408.67H1274.73H1197Z" fill="#1C4F2A"/>
<path d="M1197 611V305H1547V611L1375.59 443.438L1408.67 611L1274.73 443.438V611H1197Z" fill="#1C4F2A"/>
<rect x="1274.32" y="610.337" width="304.75" height="77.182" transform="rotate(90 1274.32 610.337)" fill="#1C4F2A"/>
<rect x="1546.45" y="610.337" width="304.75" height="77.182" transform="rotate(90 1546.45 610.337)" fill="#1C4F2A"/>
<rect x="1411.18" y="610.337" width="304.75" height="77.182" transform="rotate(90 1411.18 610.337)" fill="#1C4F2A"/>
<rect x="1197.14" y="610.337" width="349.308" height="25.4621" fill="#1C4F2A"/>
<rect x="1197.14" y="889.625" width="349.308" height="25.4621" fill="#1C4F2A"/>
<path d="M744.255 646.87C734.688 646.87 726.061 644.82 718.373 640.72C710.857 636.62 705.475 632.007 702.23 626.882H701.973V644.307H676.348V464.932H701.973V538.732H702.23C705.475 533.607 710.857 528.994 718.373 524.895C726.061 520.795 734.688 518.745 744.255 518.745C754.505 518.745 763.986 521.563 772.698 527.201C781.582 532.667 788.671 540.27 793.967 550.007C799.263 559.745 801.911 570.678 801.911 582.807C801.911 594.936 799.263 605.87 793.967 615.607C788.671 625.345 781.582 633.032 772.698 638.67C763.986 644.136 754.505 646.87 744.255 646.87ZM739.13 622.526C745.963 622.526 752.198 620.817 757.836 617.401C763.473 613.984 767.915 609.286 771.161 603.307C774.578 597.157 776.286 590.324 776.286 582.807C776.286 575.29 774.578 568.542 771.161 562.563C767.915 556.413 763.473 551.63 757.836 548.213C752.198 544.797 745.963 543.088 739.13 543.088C732.296 543.088 726.061 544.797 720.423 548.213C714.786 551.63 710.259 556.413 706.842 562.563C703.596 568.542 701.973 575.29 701.973 582.807C701.973 590.324 703.596 597.157 706.842 603.307C710.259 609.286 714.786 613.984 720.423 617.401C726.061 620.817 732.296 622.526 739.13 622.526ZM877.625 646.87C868.229 646.87 859.858 644.734 852.512 640.463C845.166 636.022 839.358 629.786 835.087 621.757C830.987 613.557 828.937 603.99 828.937 593.057V521.307H854.562V593.057C854.562 601.94 857.125 609.115 862.25 614.582C867.546 619.878 874.379 622.526 882.75 622.526C892.487 622.526 900.431 619.365 906.581 613.045C912.902 606.553 916.062 598.182 916.062 587.932V521.307H941.687V644.307H916.062V626.882H915.806C912.56 632.007 907.435 636.62 900.431 640.72C893.598 644.82 885.996 646.87 877.625 646.87ZM1004.52 644.307H978.894V521.307H1004.52V644.307ZM991.706 498.244C987.777 498.244 984.189 496.792 980.944 493.888C977.869 490.813 976.331 487.14 976.331 482.869C976.331 478.599 977.869 475.011 980.944 472.107C984.189 469.032 987.777 467.494 991.706 467.494C995.635 467.494 999.137 469.032 1002.21 472.107C1005.46 475.011 1007.08 478.599 1007.08 482.869C1007.08 487.14 1005.46 490.813 1002.21 493.888C999.137 496.792 995.635 498.244 991.706 498.244ZM1068.58 644.307H1042.96V464.932H1068.58V644.307ZM1155.71 646.87C1145.46 646.87 1135.89 644.136 1127.01 638.67C1118.29 633.032 1111.29 625.345 1105.99 615.607C1100.7 605.87 1098.05 594.936 1098.05 582.807C1098.05 570.678 1100.7 559.745 1105.99 550.007C1111.29 540.27 1118.29 532.667 1127.01 527.201C1135.89 521.563 1145.46 518.745 1155.71 518.745C1165.27 518.745 1173.81 520.795 1181.33 524.895C1189.02 528.994 1194.49 533.607 1197.73 538.732H1197.99V464.932H1223.61V644.307H1197.99V626.882H1197.73C1194.49 632.007 1189.02 636.62 1181.33 640.72C1173.81 644.82 1165.27 646.87 1155.71 646.87ZM1160.83 622.526C1167.66 622.526 1173.9 620.817 1179.54 617.401C1185.17 613.984 1189.62 609.286 1192.86 603.307C1196.28 597.157 1197.99 590.324 1197.99 582.807C1197.99 575.29 1196.28 568.542 1192.86 562.563C1189.62 556.413 1185.17 551.63 1179.54 548.213C1173.9 544.797 1167.66 543.088 1160.83 543.088C1154 543.088 1147.76 544.797 1142.12 548.213C1136.49 551.63 1131.96 556.413 1128.54 562.563C1125.3 568.542 1123.67 575.29 1123.67 582.807C1123.67 590.324 1125.3 597.157 1128.54 603.307C1131.96 609.286 1136.49 613.984 1142.12 617.401C1147.76 620.817 1154 622.526 1160.83 622.526Z" fill="#FF6B00"/>
<path d="M1411.49 571.614L1398.55 562.132L1329.41 613.052L1342.35 622.534L1411.49 571.614Z" fill="#FF6B00"/>
<path d="M1397.56 560.09L1410.51 550.613L1340.95 500L1328 509.478L1397.56 560.09Z" fill="#FF6B00"/>
</g>
<defs>
<clipPath id="clip0_1_6">
<rect width="1920" height="1080" fill="white"/>
</clipPath>
</defs>
</svg>
